<svg xmlns="http://www.w3.org/2000/svg" width="24.5" height="17.61" viewBox="0 0 24.5 17.61"><defs><style>.a{fill:rgba(69,123,157,0.87);stroke:#5d8ca9;stroke-width:0.5px;}</style></defs><path class="a" d="M20.876,9.19H3.128A3.134,3.134,0,0,0,0,12.322v10.85A3.131,3.131,0,0,0,3.128,26.3H20.872A3.131,3.131,0,0,0,24,23.172V12.322A3.128,3.128,0,0,0,20.876,9.19Zm-17.748.941H20.872A2.154,2.154,0,0,1,22,10.454L12,19.815,2,10.45A2.172,2.172,0,0,1,3.128,10.131ZM.938,23.168V12.322A2.193,2.193,0,0,1,1.313,11.1l8.968,8.4-.45-.424-8.315,5.57A2.174,2.174,0,0,1,.938,23.168Zm19.938,2.19H3.128a2.155,2.155,0,0,1-.78-.15l8.184-5.483,1.1,1.024h0A.54.54,0,0,0,12,20.9a.524.524,0,0,0,.371-.154h0l1.1-1.024,8.184,5.483A2.135,2.135,0,0,1,20.876,25.359Zm2.19-2.19a2.174,2.174,0,0,1-.578,1.47l-8.315-5.57L22.691,11.1a2.184,2.184,0,0,1,.375,1.226Z" transform="translate(0.25 -8.94)"/></svg>