<svg xmlns="http://www.w3.org/2000/svg" width="1028.864" height="920.92" viewBox="0 0 1028.864 920.92"><defs><style>.a{fill:#f5f5f5;}.b{fill:#e0e0e0;}.c,.l,.s,.t{fill:#457b9d;}.d{fill:#263238;}.e{fill:#1d3557;}.f{opacity:0.35;}.g{opacity:0.2;}.h{fill:#b16668;}.i{fill:#9a4a4d;}.j{fill:#f28f8f;}.k,.m,.x{fill:#fff;}.k{opacity:0.5;}.l,.x{opacity:0.4;}.n,.q,.t{opacity:0.15;}.o,.w{fill:#fafafa;}.p,.r{opacity:0.3;}.s,.v{opacity:0.1;}.u{isolation:isolate;}.w{stroke:#e0e0e0;stroke-miterlimit:10;}.y{fill:#ffa8a7;}</style></defs><g transform="translate(-12.548 -49.758)"><g transform="translate(12.548 445.085)"><ellipse class="a" cx="514.432" cy="262.797" rx="514.432" ry="262.797"/></g><g transform="translate(39.852 657.496)"><path class="b" d="M178.143,347.892c35.265,19.865,35.621,52.685.791,73.3s-91.666,21.23-126.948,1.371-35.636-52.679-.791-73.3S142.876,328.029,178.143,347.892Z" transform="translate(-25.291 -333.386)"/><path class="b" d="M549.4,364.333c37.961,21.382,38.342,56.709.851,78.9s-98.67,22.854-136.648,1.476-38.359-56.705-.851-78.9S511.436,342.949,549.4,364.333Z" transform="translate(385.606 -315.868)"/></g><g transform="translate(682.632 49.758)"><path class="c" d="M344.386,137.888a3.152,3.152,0,0,1-.471-.036l-4.75-.737a2.618,2.618,0,0,1-2.147-3.4l2.6-8.779a2.046,2.046,0,0,0-.628-1.834,14.02,14.02,0,0,1-1.416-1.519.769.769,0,0,0-1.074-.216l-5.942,4.5a2.162,2.162,0,0,1-3.565-1.273l-1.618-6.7a4.811,4.811,0,0,1,1.1-4.105l5.839-6.13a4.652,4.652,0,0,0,1.029-2.507,42.893,42.893,0,0,1,.491-4.7,1.219,1.219,0,0,0-.726-1.269l-3.746-1.313a2.867,2.867,0,0,1-1.744-3.7l3.613-9.79a3.926,3.926,0,0,1,3.458-2.453l4.525-.077a2.592,2.592,0,0,0,1.869-1.116c.951-1.613,1.971-3.165,3.03-4.615a4.246,4.246,0,0,0,.684-2.548l-.859-6.649a4.958,4.958,0,0,1,1.479-3.983l6.651-5.98a2.218,2.218,0,0,1,3.713.906l1.933,5.151a.537.537,0,0,0,.3.334.661.661,0,0,0,.534-.047,23.407,23.407,0,0,1,2.955-1.2,3.593,3.593,0,0,0,1.89-1.6l3.848-8.682a3.616,3.616,0,0,1,3.7-2.021l4.75.737a2.626,2.626,0,0,1,2.149,3.4l-2.6,8.779a2.058,2.058,0,0,0,.626,1.836,13.687,13.687,0,0,1,1.421,1.519.765.765,0,0,0,1.073.216l5.94-4.5a2.165,2.165,0,0,1,3.568,1.275l1.616,6.7a4.8,4.8,0,0,1-1.106,4.108l-5.835,6.128a4.627,4.627,0,0,0-1.028,2.5,43.531,43.531,0,0,1-.491,4.7,1.211,1.211,0,0,0,.724,1.268l3.748,1.313a2.867,2.867,0,0,1,1.742,3.7l-3.613,9.79a3.929,3.929,0,0,1-3.458,2.451l-4.525.077a2.592,2.592,0,0,0-1.868,1.118c-.945,1.6-1.967,3.158-3.03,4.613a4.247,4.247,0,0,0-.684,2.546l.861,6.651a4.975,4.975,0,0,1-1.478,3.983l-6.651,5.982a2.219,2.219,0,0,1-3.713-.909l-1.933-5.151a.534.534,0,0,0-.3-.334.645.645,0,0,0-.534.049,23.945,23.945,0,0,1-2.953,1.2,3.621,3.621,0,0,0-1.894,1.6l-3.846,8.68A3.633,3.633,0,0,1,344.386,137.888Zm-7.476-18.772a2.968,2.968,0,0,1,2.306,1.148,12.161,12.161,0,0,0,1.2,1.29,4.136,4.136,0,0,1,1.221,3.983l-2.6,8.781a.518.518,0,0,0,.45.714l4.75.735a1.483,1.483,0,0,0,1.446-.789l3.848-8.682a5.652,5.652,0,0,1,3.169-2.751,22.123,22.123,0,0,0,2.689-1.091,2.747,2.747,0,0,1,2.235-.109,2.636,2.636,0,0,1,1.491,1.553l1.931,5.151a.432.432,0,0,0,.131.208.587.587,0,0,0,.2-.129l6.651-5.98a2.911,2.911,0,0,0,.8-2.149l-.859-6.647a6.337,6.337,0,0,1,1.071-4.06c1.022-1.4,2-2.895,2.916-4.444a4.687,4.687,0,0,1,3.651-2.153l4.525-.077a1.848,1.848,0,0,0,1.515-1.074l3.611-9.79a.741.741,0,0,0-.024-.589.752.752,0,0,0-.437-.392l-3.75-1.313a3.333,3.333,0,0,1-2.108-3.591,41.491,41.491,0,0,0,.471-4.472,6.683,6.683,0,0,1,1.607-3.859l5.835-6.128a2.723,2.723,0,0,0,.581-2.156v0l-1.616-6.7a.574.574,0,0,0-.077-.193,1.391,1.391,0,0,0-.167.107l-5.942,4.5a2.847,2.847,0,0,1-3.99-.576,11.471,11.471,0,0,0-1.2-1.288,4.137,4.137,0,0,1-1.219-3.988l2.6-8.779a.578.578,0,0,0-.043-.471.564.564,0,0,0-.409-.24l-4.75-.737a1.493,1.493,0,0,0-1.448.791l-3.848,8.68a5.645,5.645,0,0,1-3.165,2.753,21.5,21.5,0,0,0-2.689,1.089,2.737,2.737,0,0,1-2.237.109,2.639,2.639,0,0,1-1.489-1.553L353.808,58.6a.432.432,0,0,0-.131-.21.61.61,0,0,0-.2.129L346.827,64.5a2.876,2.876,0,0,0-.8,2.145l.859,6.651a6.354,6.354,0,0,1-1.074,4.058c-1.02,1.395-2,2.891-2.916,4.444a4.682,4.682,0,0,1-3.651,2.156l-4.526.075a1.851,1.851,0,0,0-1.513,1.071L329.6,94.892a.759.759,0,0,0,.021.589.772.772,0,0,0,.439.394l3.748,1.313a3.33,3.33,0,0,1,2.113,3.587,40.865,40.865,0,0,0-.471,4.474,6.716,6.716,0,0,1-1.6,3.859L328,115.237a2.733,2.733,0,0,0-.581,2.158l1.618,6.7a.533.533,0,0,0,.077.193c.015-.013.075-.039.165-.1l5.944-4.5A2.766,2.766,0,0,1,336.91,119.115Zm14.9-5.736a8.382,8.382,0,0,1-2.492-.369c-2.95-.915-5.07-3.473-5.97-7.2-1.982-8.222,2.47-20.364,9.927-27.069,4.157-3.737,8.622-5.235,12.263-4.1,2.951.915,5.07,3.471,5.97,7.2,1.982,8.224-2.471,20.367-9.927,27.071h0C358.333,111.828,354.892,113.379,351.808,113.379Zm11.217-37c-2.548,0-5.487,1.367-8.339,3.932-6.945,6.242-11.11,17.459-9.289,25.008.726,3.021,2.3,4.986,4.543,5.683,2.914.9,6.638-.431,10.229-3.658,6.94-6.24,11.108-17.459,9.287-25.008-.729-3.021-2.3-4.984-4.543-5.68A6.317,6.317,0,0,0,363.026,76.374Z" transform="translate(-325.273 -49.758)"/><g transform="translate(75.599 5.117)"><path class="c" d="M373.273,110.38a2.119,2.119,0,0,1-.33-.026l-3.122-.486a1.887,1.887,0,0,1-1.545-2.438l1.71-5.768a1.189,1.189,0,0,0-.364-1.039,8.944,8.944,0,0,1-.949-1.016c-.088-.107-.294-.257-.478-.114l-3.9,2.957a1.682,1.682,0,0,1-1.573.3,1.662,1.662,0,0,1-1.028-1.226l-1.065-4.405a3.333,3.333,0,0,1,.769-2.85l3.833-4.026a2.917,2.917,0,0,0,.632-1.543,27.523,27.523,0,0,1,.326-3.107.632.632,0,0,0-.371-.651l-2.46-.864A2.047,2.047,0,0,1,362.1,81.43L364.481,75a2.757,2.757,0,0,1,2.421-1.716l2.974-.049a1.545,1.545,0,0,0,1.091-.656c.619-1.052,1.292-2.076,2-3.045a2.638,2.638,0,0,0,.422-1.556L372.82,63.6a3.441,3.441,0,0,1,1.022-2.76l4.373-3.93a1.675,1.675,0,0,1,1.539-.437,1.693,1.693,0,0,1,1.163,1.1l1.268,3.383c.163.146.242.139.321.1a15.7,15.7,0,0,1,1.963-.795,2.217,2.217,0,0,0,1.142-.962l2.531-5.706a2.512,2.512,0,0,1,2.606-1.423l3.122.484a1.892,1.892,0,0,1,1.545,2.441l-1.71,5.768a1.191,1.191,0,0,0,.364,1.039,8.944,8.944,0,0,1,.947,1.016.35.35,0,0,0,.48.114l3.9-2.955a1.583,1.583,0,0,1,2.6.928l1.061,4.405a3.333,3.333,0,0,1-.763,2.85l-3.835,4.026a2.874,2.874,0,0,0-.63,1.538,29.1,29.1,0,0,1-.326,3.109.63.63,0,0,0,.366.654l2.462.864a2.046,2.046,0,0,1,1.247,2.644l-2.376,6.432a2.752,2.752,0,0,1-2.419,1.718l-2.974.049a1.545,1.545,0,0,0-1.091.656c-.619,1.05-1.292,2.074-2,3.043a2.644,2.644,0,0,0-.42,1.556l.566,4.369a3.455,3.455,0,0,1-1.024,2.762l-4.369,3.93a1.622,1.622,0,0,1-2.706-.662l-1.266-3.383c-.167-.152-.246-.137-.324-.1a15.918,15.918,0,0,1-1.963.8,2.19,2.19,0,0,0-1.14.96l-2.533,5.706A2.552,2.552,0,0,1,373.273,110.38Zm-4.907-12.663a2.111,2.111,0,0,1,1.641.816,7.71,7.71,0,0,0,.773.827,2.893,2.893,0,0,1,.848,2.788l-1.71,5.768.167.259,3.12.484a.811.811,0,0,0,.774-.422l2.533-5.7a3.864,3.864,0,0,1,2.175-1.9,14.151,14.151,0,0,0,1.746-.709,1.965,1.965,0,0,1,1.6-.075,1.9,1.9,0,0,1,1.071,1.116l1.269,3.381,4.322-3.94a1.775,1.775,0,0,0,.471-1.268l-.566-4.367a4.35,4.35,0,0,1,.735-2.786c.673-.924,1.314-1.9,1.907-2.906a3.256,3.256,0,0,1,2.539-1.5l2.972-.049a1.051,1.051,0,0,0,.84-.6l2.378-6.435a.333.333,0,0,0-.011-.259.33.33,0,0,0-.2-.174l-2.46-.864a2.352,2.352,0,0,1-1.493-2.541,27.281,27.281,0,0,0,.306-2.921,4.58,4.58,0,0,1,1.1-2.64l3.833-4.026a1.644,1.644,0,0,0,.341-1.264v0l-1.061-4.4L396.53,64.4a2.03,2.03,0,0,1-2.848-.407,7.293,7.293,0,0,0-.771-.827,2.889,2.889,0,0,1-.851-2.788l1.71-5.77-.03-1.106-.133.849-3.122-.484a.785.785,0,0,0-.774.42L387.179,60a3.876,3.876,0,0,1-2.175,1.9,13.86,13.86,0,0,0-1.749.709,1.959,1.959,0,0,1-1.6.073,1.89,1.89,0,0,1-1.071-1.114l-1.269-3.383-4.322,3.943a1.765,1.765,0,0,0-.471,1.266l.566,4.369a4.367,4.367,0,0,1-.735,2.786c-.675.924-1.316,1.9-1.907,2.906a3.25,3.25,0,0,1-2.537,1.5l-2.974.051a1.067,1.067,0,0,0-.844.6l-2.374,6.432a.338.338,0,0,0,.206.433l2.462.864a2.359,2.359,0,0,1,1.5,2.539,25.721,25.721,0,0,0-.306,2.921,4.577,4.577,0,0,1-1.1,2.642l-3.835,4.026a1.652,1.652,0,0,0-.343,1.264l1.063,4.405,3.806-2.991A1.986,1.986,0,0,1,368.366,97.717Zm9.788-3.439a5.668,5.668,0,0,1-1.686-.251c-2-.619-3.428-2.34-4.033-4.849-1.316-5.458,1.633-13.508,6.574-17.945,2.773-2.494,5.766-3.493,8.215-2.732a6.227,6.227,0,0,1,4.03,4.849c1.318,5.455-1.631,13.506-6.57,17.945h0A10.171,10.171,0,0,1,378.154,94.278Zm7.369-24.316a8.511,8.511,0,0,0-5.368,2.543c-4.523,4.063-7.238,11.361-6.053,16.27.463,1.926,1.457,3.176,2.873,3.615,1.856.579,4.251-.287,6.563-2.368h0c4.519-4.065,7.234-11.363,6.051-16.272-.465-1.924-1.459-3.173-2.876-3.613A3.978,3.978,0,0,0,385.523,69.962Z" transform="translate(-360.555 -52.146)"/></g></g><g transform="translate(22.616 245.212)"><g transform="translate(45.417 181.316)"><g transform="translate(64.2 239.407)"><path class="d" d="M132.508,361.471c.4,0,1,4-1.166,5.7-2.5,1.963-9.829,5.188-19.514,4.043s-14.933-3.874-18.807-6.831-9.308-7.129-13.69-8.01c-4.069-.821-8.489-2.5-9.792-3.647s-1.121-6.246-1.121-6.246Z" transform="translate(-68.399 -326.86)"/><path class="e" d="M72.288,337.325a1.539,1.539,0,0,0-1.468,1.193c-.3,1.406-.619,5.49-1.26,7.8-.891,3.206-1.487,9.775-.954,12.387s7.167,4.427,11.408,5.9c4.33,1.5,9.34,4.6,13.737,7.909,4.551,3.42,14.125,6.981,20.437,6.938,7.472-.049,15.88-2.252,17.808-5.408,2.385-3.908.516-6.171-10.559-10.851-2.1-.885-9.46-4.858-11.969-6.3-6.792-3.9-13.518-9.321-16.643-16.216a2.939,2.939,0,0,0-3.745-2.284,19.557,19.557,0,0,0-5.329,1.464c-1.487.645-3.6,1.4-3.563,3.133a5.363,5.363,0,0,0,.416,1.763c.133.354.238.825-.1,1.035-.321.2-.748-.028-1.035-.263a26.912,26.912,0,0,1-2.987-3.266,10.291,10.291,0,0,0-1.753-1.628,19.793,19.793,0,0,1-1.9-1.121C72.157,338.9,72.318,338.139,72.288,337.325Z" transform="translate(-68.405 -337.325)"/><path class="c" d="M83.456,359.655c-1.933-1.453-3.983-2.856-6.042-4.112v-.009s13.026,7.219,18.288,3.943c3.392-2.111,1.778-4.675,1.7-5.494s6.874-5.05,10.167-5.406c0,0,3.73,1.521,4.213,1.725,11.076,4.68,12.308,6.975,9.923,10.883-1.928,3.156-8.02,5.618-17.673,5.618C97.714,366.8,88.008,363.075,83.456,359.655Z" transform="translate(-58.11 -324.467)"/></g><g transform="translate(3.204 247.98)"><path class="d" d="M67.176,362.725c.279,6-.3,10.056-2.25,13.769s-6.222,5.213-10.793,4.6-10.581-2.837-12.428-7.87-1.982-8.584-1.583-14.213Z" transform="translate(-39.938 -321.121)"/><path class="e" d="M44.56,341.326c-1.821.3-1.474,8.363-1.646,16.484-.18,8.706-2.616,12.52-2.848,19.666-.268,8.162.6,11.719,4.247,16.306s15.186,8.361,19.837.889c3.79-6.092,3.276-12.415,1.982-20.424-1.339-8.277-2.353-14.095-2.678-20.442-.309-6.064-.5-11.954-2.166-12.479-.026.9-.021,2.033-.054,2.914-.028.677.152,3.96-.874,4.086a11.5,11.5,0,0,1-.272-2.271,2.553,2.553,0,0,0-.718-1.9,3.721,3.721,0,0,0-2.13-.641c-1.843-.159-3.694-.285-5.545-.268-.924.009-1.845.054-2.762.148a7.9,7.9,0,0,0-2.293.512,1.552,1.552,0,0,0-.9.911,2.415,2.415,0,0,0,.006.928,6.1,6.1,0,0,1-.047,1.676c-.041.242-.189.551-.459.516-.219-.028-.33-.261-.354-.459-.114-.973-.056-1.693-.133-2.828-.034-.525-.019-1.245-.071-1.77S44.58,341.845,44.56,341.326Z" transform="translate(-39.842 -341.326)"/><path class="c" d="M40.23,357.219c-.049,1.178-.283,8.974,2.179,10.15,2.666,1.273,4.4-4.84,4.4-4.84a19.137,19.137,0,0,1,12.985-.317c.291,1.791,2.038,5.987,4.283,4.9,2.228-1.076,2.168-9.985,2.166-10.1,1.211,7.68,1.592,13.818-2.089,19.732-4.652,7.472-16.19,3.7-19.837-.889s-4.515-8.145-4.247-16.306C40.093,358.731,40.151,357.962,40.23,357.219Z" transform="translate(-39.842 -323.4)"/></g><path class="c" d="M57.46,225.595c-3.7,7.845-8.025,22.942-8.8,33.019-3.193,41.421-4.791,101.563-4.791,101.563-.366,4.328-3.109,14.157-4.952,33.208-2.179,22.509,3.872,98.113,3.872,98.113s13.469,8.027,23.943-1.106c0,0,12.177-104.861,15-127.241,2.464-19.531,9.355-61.79,9.355-61.79l5.293,64.633s-.746,17.575-.225,28.935c.6,13.212,7.065,78.383,7.065,78.383s18.5,6.261,26.769-2.629c0,0,1.963-93.367,2.243-109.268.551-31.187-1.078-89.335-2.183-121.017Z" transform="translate(-38.443 -225.595)"/><path class="f" d="M57.46,225.595c-3.7,7.845-8.025,22.942-8.8,33.019-3.193,41.421-4.791,101.563-4.791,101.563-.366,4.328-3.109,14.157-4.952,33.208-2.179,22.509,3.872,98.113,3.872,98.113s13.469,8.027,23.943-1.106c0,0,12.177-104.861,15-127.241,2.464-19.531,9.355-61.79,9.355-61.79l5.293,64.633s-.746,17.575-.225,28.935c.6,13.212,7.065,78.383,7.065,78.383s18.5,6.261,26.769-2.629c0,0,1.963-93.367,2.243-109.268.551-31.187-1.078-89.335-2.183-121.017Z" transform="translate(-38.443 -225.595)"/><path class="g" d="M63.012,276.57,65.9,256.688s16.793-2.246,24.4-9.4A27.571,27.571,0,0,1,70.516,259.8l-2.97,17.98-.206,55.938Z" transform="translate(-10.367 -200.804)"/></g><g transform="translate(119.288 88.782)"><path class="h" d="M98.7,237.476,86.458,251.111S76.445,238.6,76.823,238.6s11.554-18.35,11.554-18.35Z" transform="translate(-68.468 -139.168)"/><path class="c" d="M72.918,182.41c16.377,4.654,16.568,3.555,26.934,17.352,7.206,9.589,21.547,27.32,25.749,34.622,4.738,8.237,5.4,11.581,1.684,17.746-3.531,5.86-24.131,29.557-24.131,29.557-4.918-3.85-10.375-7.442-13.128-14.373l13.128-21.946L75.976,217.381Z" transform="translate(-72.918 -182.41)"/></g><g transform="translate(61.88)"><g transform="translate(2.816 10.892)"><path class="d" d="M57.153,152.966s-.381.054-.984.206a4.558,4.558,0,0,0-2.426-5.121,4.879,4.879,0,0,0-6.3,2.586l6.87,3.141a9.593,9.593,0,0,0-5.23,4.463c-1.886,3.874.6,12.121,3.109,22.312s3.876,14.59,5.541,18.875c1.153,2.966,3.227,3.058,3.227,3.058V192.321l-.437-8.423s5.408-7.386,6-13.437c.765-7.789-.874-10.977-.874-10.977Z" transform="translate(-47.44 -144.228)"/><path class="d" d="M78.53,146.059a17.141,17.141,0,1,0,17.2,17.086A17.144,17.144,0,0,0,78.53,146.059Z" transform="translate(-31.437 -146.059)"/></g><path class="h" d="M62.34,180.09c-2.033,1.761-3.685-2.8-5.4-4.575s-7.281-4.2-10.039,1.658c-2.807,5.97,2.552,14.076,6.717,16.008,6.1,2.828,8.834-3.323,8.834-3.323v25.43c6.426,11.575,18.783,9.3,25.351,10.921,1.2-4.693,2.261-6.9,1.577-9.5l-.049-8.286s5.059.975,8.393.45c5.55-.876,8.524-5.447,10.187-11.461,2.674-9.659,3.227-25.876-.489-44.631-6.214-4.806-27.24-4.026-40.279,4.24C68.1,173.653,64.371,178.329,62.34,180.09Z" transform="translate(-46.126 -130.873)"/><path class="d" d="M67.291,163.475a2.606,2.606,0,1,1-2.606-2.606A2.6,2.6,0,0,1,67.291,163.475Z" transform="translate(-27.895 -118.243)"/><path class="d" d="M76.493,163.016a2.607,2.607,0,1,1-2.608-2.608A2.606,2.606,0,0,1,76.493,163.016Z" transform="translate(-17.382 -118.77)"/><path class="i" d="M78.422,182.847s-12.4-2.456-16.737-4.744a14.273,14.273,0,0,1-6.008-5.905,19.513,19.513,0,0,0,3.424,6.977c3.182,4.039,19.332,6.97,19.332,6.97Z" transform="translate(-35.212 -105.298)"/><path class="d" d="M106.034,149.624c-.024-.208-.049-.418-.079-.626a1.906,1.906,0,0,0-.407-1.076c-.836-.868-2.5,1.313-3.1,1.821a22.285,22.285,0,0,1-1.778,1.391,12.234,12.234,0,0,0-1.667.994,17.8,17.8,0,0,0,.011-6.25c-.246-1.367-.634-4.534-2.327-4.873-1.007-.2-1.886.641-2.636,1.344-6.786,6.349-15.642,3.411-23.816,3.67-6.835.219-15.083,3-18.168,9.647-1.412,3.041-1.656,6.246,1.136,8.348,1.8,1.356,3.563,1.294,4.573,3.463.246.534,1.808,7,.887,6.938a7.116,7.116,0,0,0,7.615-5.2c.167-.709.549-1.995.7-2.723a1.514,1.514,0,0,1,1.952-1.183c2.072.446,3.424,1.294,5.389,1.834,5.31,1.455,11.809,2.108,17.206,1.014a20.369,20.369,0,0,0,10.812-5.8C105.452,159.035,106.521,154.085,106.034,149.624Z" transform="translate(-40.512 -140.976)"/><g transform="translate(30.262 35.174)"><path class="d" d="M65.805,159.433l-5.087,3.306a3.183,3.183,0,0,1,.93-4.307A2.961,2.961,0,0,1,65.805,159.433Z" transform="translate(-60.249 -156.742)"/><path class="i" d="M64.647,169.6l8.387,2.179a4.258,4.258,0,0,1-5.2,3.25A4.538,4.538,0,0,1,64.647,169.6Z" transform="translate(-55.36 -143.439)"/><path class="j" d="M69.373,174.306a4.492,4.492,0,0,0-4.455-3.992c-.126,0-.246.028-.371.039a4.479,4.479,0,0,0,3.263,3.863A4.117,4.117,0,0,0,69.373,174.306Z" transform="translate(-55.336 -142.624)"/><path class="d" d="M77.668,161.8l-5.547-2.567a2.935,2.935,0,0,1,3.962-1.562A3.21,3.21,0,0,1,77.668,161.8Z" transform="translate(-46.684 -157.391)"/><path class="i" d="M67.389,160.409l1.477,16.7,8.66-3.089Z" transform="translate(-52.09 -153.943)"/></g></g><g transform="translate(44.406 73.657)"><g transform="translate(0 10.752)"><path class="e" d="M60.791,180.369c-9.842,4.307-18.537,8.2-22.82,10.928,0,0,2.773,28.417,7.442,46.66,3.407,13.306,5.295,59.345,5.295,59.345s19.687,9.4,47.958,7.662c19.171-1.178,32.411-7.435,32.411-7.435s1.065-28.942-.99-65.162c-1.515-26.658-2.533-40.673-9-44.588-3.855-2.336-20.388-6.261-20.388-6.261s-1.14,6.443-3.576,9.779C91.323,188.372,60.791,180.369,60.791,180.369Z" transform="translate(-37.971 -180.369)"/></g><path class="d" d="M70.7,298.849c1.369-.135,2.693-.3,3.994-.478,1.693-19.162,3.857-64.661-9.115-112.9C65.579,185.469,76.5,242.363,70.7,298.849Z" transform="translate(-6.423 -163.789)"/><path class="c" d="M65.579,194.313c4.915-3.24,8.907,4.943,9.743,3.69s-4.388-19.248-8.2-20.272l.039,7.082S66.593,191.313,65.579,194.313Z" transform="translate(-6.423 -172.632)"/><path class="c" d="M59.607,175.351v2c.379,1.9,4.114,6.3,13.54,10.529,9.593,4.3,11.811,9.154,11.811,9.154s-2.254-1.256-5.933.951c-3.91,2.342-7.917,8.38-9.953,8.329-1.982-.049-8.344-7.077-13.683-12.679-4.489-4.705-6.767-7.529-6.767-7.529S55.945,175.394,59.607,175.351Z" transform="translate(-25.801 -175.351)"/></g><g transform="translate(0 87.04)"><g transform="translate(0 80.579)"><path class="c" d="M96.38,264.532v64.033a1.318,1.318,0,0,1-.508,1.194l-2.893,1.682a.956.956,0,0,1-.452.09,1.716,1.716,0,0,1-.831-.236l-72.583-41.91a4.131,4.131,0,0,1-1.864-3.257l.019-63.941a1.328,1.328,0,0,1,.523-1.193.405.405,0,0,1,.126-.073h.019l2.713-1.592a1.1,1.1,0,0,1,.489-.126,1.835,1.835,0,0,1,.831.253l38.044,21.931,4.5,2.6s5.533,3.182,6.726,3.853c.09.054.146.09.18.107l23.094,13.328a2.456,2.456,0,0,1,.379.272,3.964,3.964,0,0,1,.941,1.138A3.752,3.752,0,0,1,96.38,264.532Z" transform="translate(-17.245 -219.203)"/><path class="k" d="M95.471,262.687l-2.8,1.628h-.019c-.09-.146-.18-.289-.272-.416a4.175,4.175,0,0,0-.669-.724,2.439,2.439,0,0,0-.379-.27L68.237,249.6c-.579-.343-5.788-3.328-6.835-3.923l-2.766-1.592L18.781,221.1a1.337,1.337,0,0,0-1.211-.18l2.713-1.592a1.1,1.1,0,0,1,.489-.126,1.579,1.579,0,0,1,.831.253l38.044,21.931,4.5,2.6s5.533,3.182,6.726,3.853c.09.054.146.09.18.107l23.094,13.328a2.457,2.457,0,0,1,.379.272A3.964,3.964,0,0,1,95.471,262.687Z" transform="translate(-16.878 -219.203)"/><path class="c" d="M17.279,221.308l-.032,63.956a4.14,4.14,0,0,0,1.879,3.255L91.915,330.54a1.107,1.107,0,0,0,1.661-.96V265.291a3.8,3.8,0,0,0-.549-1.845,3.963,3.963,0,0,0-1.324-1.4l-23.09-13.332c-.591-.332-5.8-3.315-6.842-3.91L19.16,220.226a1.386,1.386,0,0,0-1.23-.18l-.075.041-.043.021-.019.013A1.343,1.343,0,0,0,17.279,221.308Z" transform="translate(-17.247 -218.327)"/><path class="c" d="M52.773,240.479h-.019c-.09-.146-.18-.289-.272-.416A3.424,3.424,0,0,1,52.773,240.479Z" transform="translate(23.017 -195.366)"/><path class="g" d="M52.551,308.286a.368.368,0,0,0,.081-.028l2.908-1.686a1.358,1.358,0,0,0,.506-1.191V241.339a3.807,3.807,0,0,0-.555-1.845l-2.809,1.637v.006a3.8,3.8,0,0,1,.549,1.847v64.282A1.1,1.1,0,0,1,52.551,308.286Z" transform="translate(23.096 -196.016)"/></g><g transform="translate(11.376)"><g transform="translate(1.358 5.41)"><path class="h" d="M28.785,266.949c15.552-63.566,23.553-83.071,42.443-82.825,5.513,6.593-.3,27.1-3.947,37.073,0,0-16.711,40.817-19.812,55.392-2.726,12.8-5.811,28.912-5.614,39.917a7.97,7.97,0,0,0,2.16,5.237c3.548,3.846,3.561,6.942,5.86,11.2,1.8,3.33,3.769,4.575,3.208,5.323-.72.964-3,2.22-5.833.431-1.427-.9-2.353-1.954-4.42-4.24a49.2,49.2,0,0,0,3.448,14.607l3.951,2.282s-1.211,4.108-10.756,1.367C28.691,349.618,24.829,348.283,23.689,330c-.328-5.269-.825-13.578-.2-20.238C25.112,292.42,26.282,277.178,28.785,266.949Z" transform="translate(-23.19 -184.122)"/></g><path class="c" d="M72.434,181.6s-19.068,4.427-23.63,11.414c-5.271,8.074-7.277,18.49-16.141,50.026s-9.655,54.9-10.107,72.647c0,0,11.108,5.185,21.357-.733,0,0,4.54-27.433,8.564-42.03S69.413,226.7,69.413,226.7,79.621,203.551,72.434,181.6Z" transform="translate(-22.556 -181.597)"/></g><g transform="translate(79.142 138.581)"><path class="e" d="M55.517,286.354c.874.54,1.245-1.1,1.453-3.505l.077-4.444s3.4,3.045,4.23-7.238c.917-11.314-4.15-13.388-4.15-13.388s-.024-1.879-.024-5.6-.789-4.633-1.648-5.258l-1.273-.645v39.287S54.641,285.814,55.517,286.354Z" transform="translate(-54.182 -246.272)"/></g><g transform="translate(69.671 141.844)"><path class="e" d="M56.417,279.021c0-3.368-.324-5.365-2.483-6.69C51.465,270.816,50.4,270.3,50.4,270.3l-.634-20.838s3.572,2.4,4.793,3.116,1.924-3.529,1.862-4.783l2.918,1.328.343,32.175Z" transform="translate(-49.762 -247.795)"/></g><g transform="translate(69.126 134.927)"><path class="e" d="M49.669,280.693l2.552,1.534c1.408.846,2.031-3.478,1.391-9.662l.6-13.765c-.641-6.184-.746-11.851-2.153-12.7l-2.552-1.534Z" transform="translate(-49.508 -244.567)"/></g></g></g><g transform="translate(177.585 53.428)"><g transform="translate(0)"><g transform="translate(64.569)"><path class="l" d="M539.246,61.58c0-2.8-1.011-4.74-2.627-5.614v-.019l-6.747-3.853-.015.009c-1.566-.958-3.748-.864-6.171.536L128.313,280.89c-4.755,2.745-8.609,9.422-8.609,14.913v392.89c0,2.766.984,4.7,2.563,5.588v.008l6.9,3.941h0c1.56.9,3.716.778,6.1-.6L530.642,469.386c4.755-2.745,8.61-9.422,8.61-14.913Z" transform="translate(-119.704 -51.471)"/><path class="l" d="M535.46,59.471V452.363c0,5.483-3.838,12.169-8.605,14.909L131.472,695.52c-4.219,2.447-7.74.949-8.457-3.268a7.94,7.94,0,0,0,1.519-.7L519.919,463.308c4.744-2.741,8.6-9.4,8.6-14.909V55.507a8.829,8.829,0,0,0-.148-1.729C532.4,52.28,535.46,54.579,535.46,59.471Z" transform="translate(-115.92 -49.353)"/><path class="m" d="M527.728,53.869l-93.446,54.972-93.633,54.652-93.8,54.355-46.911,27.165-46.988,27.026L141.2,278.8l-5.873,3.379c-.93.553-2.063,1.148-2.831,1.665a14.572,14.572,0,0,0-2.316,1.978,17.734,17.734,0,0,0-4.92,11.119l-.021,13.538-.062,54.207-.315,108.413c-.169,72.276-.664,144.553-1.11,216.829-.448-72.276-.945-144.553-1.114-216.829L122.32,364.68l-.062-54.207-.011-13.566a20.656,20.656,0,0,1,5.723-13.186,17.748,17.748,0,0,1,2.824-2.415c1.114-.735,1.993-1.179,3-1.783l5.863-3.4,11.727-6.792,46.9-27.178,46.984-27.039,93.978-54.052L433.394,107.3Z" transform="translate(-116.798 -48.731)"/></g><g transform="translate(105.823 367.83)"><path class="n" d="M144.436,311.52l151.793-87.635c3.026-1.748,5.479-.332,5.479,3.163v107.82a12.109,12.109,0,0,1-5.479,9.488L144.438,431.993c-3.026,1.746-5.479.33-5.479-3.163l0-107.822A12.109,12.109,0,0,1,144.436,311.52Z" transform="translate(-138.957 -223.135)"/><g transform="translate(8.093 24.939)"><g transform="translate(0.029)"><path class="o" d="M143.3,319.587a.55.55,0,0,1-.272-1.026l145-83.714a.549.549,0,1,1,.549.951l-145,83.716A.547.547,0,0,1,143.3,319.587Z" transform="translate(-142.748 -234.774)"/></g><g transform="translate(0.029 19.411)"><path class="o" d="M143.3,328.649a.551.551,0,0,1-.272-1.028l145-83.714a.55.55,0,1,1,.549.954l-145,83.714A.53.53,0,0,1,143.3,328.649Z" transform="translate(-142.748 -243.833)"/></g><g transform="translate(0.029 38.823)"><path class="o" d="M143.3,337.709a.55.55,0,0,1-.272-1.026l145-83.719a.551.551,0,0,1,.549.956l-145,83.716A.547.547,0,0,1,143.3,337.709Z" transform="translate(-142.748 -252.893)"/></g><g transform="translate(0.029 58.235)"><path class="o" d="M143.3,346.77a.551.551,0,0,1-.272-1.029l145-83.716a.55.55,0,1,1,.549.953l-145,83.719A.549.549,0,0,1,143.3,346.77Z" transform="translate(-142.748 -261.952)"/></g><g transform="translate(0 77.619)"><path class="o" d="M143.312,355.873a.58.58,0,0,1-.289-1.082l145-83.716a.58.58,0,1,1,.581,1L143.6,355.8A.586.586,0,0,1,143.312,355.873Z" transform="translate(-142.734 -270.998)"/></g><path class="p" d="M288,262l-8.444-8.151c-3.1-2.993-7.836-1.483-11.783,3.761l-.266.354c-4.2,5.58-9.254,6.893-12.3,3.2l-3.6-4.373c-3.688-4.474-10.148-1.519-14.457,6.612l-3.1,5.865c-3.126,5.9-7.538,9.289-11.219,8.612h0c-4.288-.791-9.469,3.919-12.5,11.363l-4.845,11.888c-2.73,6.7-7.24,11.262-11.307,11.444l-4.335.195c-2.423.107-5.072,1.787-7.427,4.71l-4.624,5.736c-4.51,5.6-9.767,6.291-12.543,1.659l-.206-.345c-4.063-6.775-12.792-1.791-16.9,9.651L143,348.445v28.018l145-83.714Z" transform="translate(-142.426 -214.712)"/><g transform="translate(0.029 37.07)"><path class="c" d="M143.3,349.289a.522.522,0,0,1-.186-.034.55.55,0,0,1-.33-.7l5.128-14.266c2.646-7.367,7.459-12.612,11.976-13.053a6.06,6.06,0,0,1,5.914,3.306l.208.345a5.164,5.164,0,0,0,4.06,2.779c2.432.148,5.147-1.474,7.583-4.5l4.624-5.736c2.458-3.053,5.239-4.8,7.83-4.915l4.337-.195c3.838-.171,8.185-4.633,10.821-11.1l4.847-11.886c3.145-7.727,8.509-12.567,13.111-11.7,3.426.636,7.62-2.636,10.632-8.329l3.1-5.865c2.781-5.25,6.572-8.6,10.139-8.959a5.763,5.763,0,0,1,5.228,2.254l3.6,4.373a4.722,4.722,0,0,0,3.754,1.883l.111,0c2.43-.051,5.19-1.9,7.572-5.061l.264-.351c2.5-3.321,5.368-5.269,8.072-5.483a5.752,5.752,0,0,1,4.534,1.658l8.444,8.151a.549.549,0,0,1,.013.778.557.557,0,0,1-.778.013l-8.447-8.151a4.59,4.59,0,0,0-3.681-1.352c-2.387.189-4.971,1.982-7.279,5.048l-.264.351c-2.625,3.486-5.616,5.438-8.427,5.5a5.874,5.874,0,0,1-4.74-2.284l-3.6-4.371a4.7,4.7,0,0,0-4.268-1.86c-3.2.324-6.67,3.456-9.28,8.38l-3.1,5.863c-3.242,6.124-7.855,9.64-11.8,8.892-3.955-.718-8.989,3.908-11.892,11.033l-4.847,11.888c-2.837,6.966-7.465,11.592-11.789,11.787l-4.335.193c-2.271.1-4.765,1.7-7.024,4.506l-4.624,5.736c-2.706,3.358-5.76,5.106-8.517,4.907a6.2,6.2,0,0,1-4.924-3.311l-.208-.345c-1.208-2.012-2.886-2.976-4.868-2.777-4.1.4-8.541,5.357-11.048,12.331l-5.125,14.266A.553.553,0,0,1,143.3,349.289Z" transform="translate(-142.748 -252.074)"/></g><g transform="translate(131.396 37.281)"><path class="c" d="M204.607,301.509a.551.551,0,0,1-.551-.551v-3.3a.551.551,0,0,1,1.1,0v3.3A.551.551,0,0,1,204.607,301.509Zm0-6.6a.551.551,0,0,1-.551-.551v-3.3a.551.551,0,1,1,1.1,0v3.3A.551.551,0,0,1,204.607,294.91Zm0-6.6a.552.552,0,0,1-.551-.551v-3.3a.551.551,0,0,1,1.1,0v3.3A.552.552,0,0,1,204.607,288.31Zm0-6.6a.552.552,0,0,1-.551-.551v-3.3a.551.551,0,0,1,1.1,0v3.3A.552.552,0,0,1,204.607,281.711Zm0-6.6a.552.552,0,0,1-.551-.551v-3.3a.551.551,0,0,1,1.1,0v3.3A.552.552,0,0,1,204.607,275.111Zm0-6.6a.55.55,0,0,1-.551-.549v-3.3a.551.551,0,1,1,1.1,0v3.3A.55.55,0,0,1,204.607,268.509Zm0-6.6a.55.55,0,0,1-.551-.549v-3.3a.551.551,0,0,1,1.1,0v3.3A.55.55,0,0,1,204.607,261.91Zm0-6.6a.55.55,0,0,1-.551-.551v-2.036a.551.551,0,0,1,1.1,0v2.036A.55.55,0,0,1,204.607,255.31Z" transform="translate(-204.056 -252.173)"/></g><g transform="translate(72.529 65.794)"><path class="c" d="M177.132,320.291a.55.55,0,0,1-.549-.551v-3.3a.55.55,0,1,1,1.1,0v3.3A.55.55,0,0,1,177.132,320.291Zm0-6.6a.55.55,0,0,1-.549-.551v-3.3a.55.55,0,1,1,1.1,0v3.3A.551.551,0,0,1,177.132,313.691Zm0-6.6a.55.55,0,0,1-.549-.551v-3.3a.55.55,0,1,1,1.1,0v3.3A.55.55,0,0,1,177.132,307.092Zm0-6.6a.55.55,0,0,1-.549-.551v-3.3a.55.55,0,1,1,1.1,0v3.3A.551.551,0,0,1,177.132,300.492Zm0-6.6a.551.551,0,0,1-.549-.551v-3.3a.55.55,0,1,1,1.1,0v3.3A.552.552,0,0,1,177.132,293.893Zm0-6.6a.55.55,0,0,1-.549-.551v-3.3a.55.55,0,1,1,1.1,0v3.3A.551.551,0,0,1,177.132,287.293Zm0-6.6a.551.551,0,0,1-.549-.551v-3.3a.55.55,0,1,1,1.1,0v3.3A.552.552,0,0,1,177.132,280.693Zm0-6.6a.55.55,0,0,1-.549-.548v-3.3a.55.55,0,1,1,1.1,0v3.3A.55.55,0,0,1,177.132,274.092Zm0-6.6a.551.551,0,0,1-.549-.551v-.913a.55.55,0,1,1,1.1,0v.913A.552.552,0,0,1,177.132,267.494Z" transform="translate(-176.583 -265.48)"/></g><g transform="translate(43.092 100.2)"><path class="c" d="M163.4,318.936a.551.551,0,0,1-.551-.551v-3.3a.551.551,0,1,1,1.1,0v3.3A.55.55,0,0,1,163.4,318.936Zm0-6.6a.552.552,0,0,1-.551-.551v-3.3a.551.551,0,1,1,1.1,0v3.3A.552.552,0,0,1,163.4,312.337Zm0-6.6a.552.552,0,0,1-.551-.551v-3.3a.551.551,0,0,1,1.1,0v3.3A.552.552,0,0,1,163.4,305.737Zm0-6.6a.552.552,0,0,1-.551-.551v-3.3a.551.551,0,1,1,1.1,0v3.3A.552.552,0,0,1,163.4,299.137Zm0-6.6a.55.55,0,0,1-.551-.549v-3.3a.551.551,0,1,1,1.1,0v3.3A.55.55,0,0,1,163.4,292.536Zm0-6.6a.55.55,0,0,1-.551-.551v-3.3a.551.551,0,0,1,1.1,0v3.3A.55.55,0,0,1,163.4,285.936Z" transform="translate(-162.845 -281.537)"/></g><g transform="translate(13.66 107.243)"><path class="c" d="M149.66,332.174a.55.55,0,0,1-.551-.549v-3.3a.551.551,0,1,1,1.1,0v3.3A.551.551,0,0,1,149.66,332.174Zm0-6.6a.55.55,0,0,1-.551-.549v-3.3a.551.551,0,0,1,1.1,0v3.3A.551.551,0,0,1,149.66,325.574Zm0-6.6a.551.551,0,0,1-.551-.551v-3.3a.551.551,0,0,1,1.1,0v3.3A.552.552,0,0,1,149.66,318.975Zm0-6.6a.551.551,0,0,1-.551-.551v-3.3a.551.551,0,0,1,1.1,0v3.3A.552.552,0,0,1,149.66,312.375Zm0-6.6a.551.551,0,0,1-.551-.551v-3.3a.551.551,0,0,1,1.1,0v3.3A.552.552,0,0,1,149.66,305.776Zm0-6.6a.551.551,0,0,1-.551-.551v-3.3a.551.551,0,0,1,1.1,0v3.3A.552.552,0,0,1,149.66,299.176Zm0-6.6a.55.55,0,0,1-.551-.551v-3.3a.551.551,0,0,1,1.1,0v3.3A.552.552,0,0,1,149.66,292.576Zm0-6.627a.527.527,0,0,1-.551-.523v-.051a.551.551,0,0,1,1.1,0A.574.574,0,0,1,149.66,285.949Z" transform="translate(-149.109 -284.824)"/></g><g transform="translate(101.961 39.869)"><path class="c" d="M190.87,317.123a.55.55,0,0,1-.551-.549v-3.3a.551.551,0,1,1,1.1,0v3.3A.551.551,0,0,1,190.87,317.123Zm0-6.6a.551.551,0,0,1-.551-.551v-3.3a.551.551,0,1,1,1.1,0v3.3A.552.552,0,0,1,190.87,310.523Zm0-6.6a.551.551,0,0,1-.551-.551v-3.3a.551.551,0,0,1,1.1,0v3.3A.552.552,0,0,1,190.87,303.924Zm0-6.6a.551.551,0,0,1-.551-.551v-3.3a.551.551,0,0,1,1.1,0v3.3A.552.552,0,0,1,190.87,297.324Zm0-6.6a.551.551,0,0,1-.551-.551v-3.3a.551.551,0,1,1,1.1,0v3.3A.552.552,0,0,1,190.87,290.724Zm0-6.6a.551.551,0,0,1-.551-.551v-3.3a.551.551,0,1,1,1.1,0v3.3A.552.552,0,0,1,190.87,284.125Zm0-6.6a.55.55,0,0,1-.551-.551v-3.3a.551.551,0,0,1,1.1,0v3.3A.552.552,0,0,1,190.87,277.525Zm0-6.6a.551.551,0,0,1-.551-.551v-3.3a.551.551,0,0,1,1.1,0v3.3A.552.552,0,0,1,190.87,270.926Zm0-6.6a.551.551,0,0,1-.551-.551v-3.3a.551.551,0,0,1,1.1,0v3.3A.552.552,0,0,1,190.87,264.326Zm0-6.6a.552.552,0,0,1-.551-.551v-3.244a.551.551,0,1,1,1.1,0v3.244A.553.553,0,0,1,190.87,257.726Z" transform="translate(-190.319 -253.381)"/></g><path class="b" d="M206.357,252.83c0-1.133-.6-1.708-1.333-1.283a3.516,3.516,0,0,0-1.333,2.822c0,1.133.6,1.708,1.333,1.283A3.522,3.522,0,0,0,206.357,252.83Z" transform="translate(-73.077 -215.768)"/><path class="b" d="M192.62,254.037c0-1.133-.6-1.708-1.333-1.281a3.514,3.514,0,0,0-1.333,2.82c0,1.133.6,1.708,1.333,1.283A3.518,3.518,0,0,0,192.62,254.037Z" transform="translate(-88.775 -214.387)"/><path class="b" d="M178.883,266.137c0-1.133-.6-1.708-1.333-1.283a3.518,3.518,0,0,0-1.333,2.822c0,1.133.6,1.708,1.333,1.281A3.508,3.508,0,0,0,178.883,266.137Z" transform="translate(-104.472 -200.561)"/><path class="b" d="M165.146,281.553c0-1.133-.6-1.706-1.333-1.281a3.519,3.519,0,0,0-1.333,2.822c0,1.131.6,1.706,1.333,1.281A3.513,3.513,0,0,0,165.146,281.553Z" transform="translate(-120.17 -182.943)"/><path class="b" d="M151.407,285.481c0-1.134-.6-1.708-1.333-1.283a3.52,3.52,0,0,0-1.331,2.822c0,1.134.6,1.708,1.331,1.281A3.508,3.508,0,0,0,151.407,285.481Z" transform="translate(-135.866 -178.456)"/></g></g><g transform="translate(326.164 86.88)"><g transform="translate(96.198)"><g transform="translate(1.343)"><path class="c" d="M288.442,123.958a1.128,1.128,0,0,1-1.131-1.131l0-19.782a1.134,1.134,0,0,1,.566-.981l17.133-9.9a1.132,1.132,0,0,1,1.7.981v19.782a1.134,1.134,0,0,1-.566.981l-17.135,9.9A1.143,1.143,0,0,1,288.442,123.958Zm1.136-20.259v17.165l14.868-8.586V95.113Z" transform="translate(-287.311 -92.017)"/></g><path class="c" d="M287.2,96.083c.81-.791,1.524-.716,1.965-.171l7.853,9.619L300.162,99c.5-1.138,1.131-1.419,1.881-1.112.913.373.731,1.149.45,1.783l-4.054,8.622c-.39.827-.549,1.114-1.121,1.226-.818.159-1.309-.54-1.573-.866l-8.627-10.564A1.307,1.307,0,0,1,287.2,96.083Z" transform="translate(-286.684 -88.042)"/></g><path class="c" d="M325.9,104.521l-81.376,47.009a5.884,5.884,0,0,0-2.738,4.564c0,1.648,1.226,2.276,2.738,1.4L325.9,110.485a5.89,5.89,0,0,0,2.741-4.564C328.644,104.275,327.417,103.647,325.9,104.521Z" transform="translate(-241.789 -78.18)"/><g transform="translate(0 29.671)"><g transform="translate(96.198)"><g transform="translate(1.345)"><path class="c" d="M288.443,137.809a1.133,1.133,0,0,1-1.131-1.133V116.892a1.136,1.136,0,0,1,.566-.981l17.133-9.893a1.132,1.132,0,0,1,1.7.981V126.78a1.136,1.136,0,0,1-.566.981l-17.133,9.9A1.146,1.146,0,0,1,288.443,137.809Zm1.133-20.264v17.168l14.868-8.586V108.962Z" transform="translate(-287.312 -105.865)"/></g><path class="c" d="M287.2,109.989c.81-.793,1.524-.718,1.965-.174l7.853,9.619,3.148-6.527c.5-1.138,1.131-1.419,1.881-1.114.913.375.731,1.149.45,1.783l-4.054,8.622c-.39.829-.549,1.116-1.121,1.226-.818.159-1.309-.538-1.573-.866l-8.627-10.564A1.3,1.3,0,0,1,287.2,109.989Z" transform="translate(-286.684 -101.825)"/></g><path class="c" d="M325.9,118.326l-81.376,47.009a5.884,5.884,0,0,0-2.738,4.564c0,1.648,1.226,2.276,2.738,1.4L325.9,124.29a5.886,5.886,0,0,0,2.741-4.562C328.644,118.08,327.417,117.452,325.9,118.326Z" transform="translate(-241.789 -92.075)"/></g></g><g transform="translate(152.187 156.874)"><g class="q"><path d="M279.668,125.76l-111.19,64.2a17.423,17.423,0,0,0-7.883,13.651V304.933c0,5.027,3.529,7.065,7.883,4.551l111.19-64.2a17.423,17.423,0,0,0,7.881-13.651V130.311C287.549,125.284,284.022,123.247,279.668,125.76Z" transform="translate(-160.595 -124.684)"/></g><g transform="translate(31.466 46.422)"><g transform="translate(17.588 32.749)"><path class="c" d="M200.536,161.681a.253.253,0,0,1,.283-.009.383.383,0,0,1,.118.313v1.408a.946.946,0,0,1-.118.448.746.746,0,0,1-.283.321l-4.68,2.7,3.471,8.655a.785.785,0,0,1,.045.21,1,1,0,0,1-.12.448.759.759,0,0,1-.285.321l-1.234.713c-.12.069-.212.077-.276.011a.72.72,0,0,1-.156-.234l-3.46-8.637c-.077-.184-.137-.328-.176-.446a1.128,1.128,0,0,1-.062-.375v-1.311a.953.953,0,0,1,.118-.441.724.724,0,0,1,.285-.321Z" transform="translate(-171.93 -161.633)"/><path class="c" d="M189.545,170.6a8.833,8.833,0,0,1,.686-2.1,7.6,7.6,0,0,1,1.223-1.843,7.286,7.286,0,0,1,1.838-1.463,3.978,3.978,0,0,1,1.849-.643,1.66,1.66,0,0,1,1.215.459,2.747,2.747,0,0,1,.684,1.346,10.359,10.359,0,0,1,.261,2.008c.021.486.032,1.056.032,1.7s-.011,1.221-.032,1.74a15.348,15.348,0,0,1-.261,2.291,8.855,8.855,0,0,1-.684,2.1,7.768,7.768,0,0,1-1.215,1.83,7.5,7.5,0,0,1-1.849,1.478,4.141,4.141,0,0,1-1.838.649,1.542,1.542,0,0,1-1.223-.426,2.633,2.633,0,0,1-.686-1.311,9.808,9.808,0,0,1-.264-1.986c-.011-.242-.013-.521-.013-.825v-1.866c0-.306,0-.585.013-.842A14.943,14.943,0,0,1,189.545,170.6Zm5.772.572c0-.609-.006-1.163-.028-1.654a3.381,3.381,0,0,0-.514-1.918q-.437-.534-1.483.071a3.377,3.377,0,0,0-1.483,1.639,7.515,7.515,0,0,0-.516,2.516c-.021.514-.028,1.078-.028,1.682s.006,1.166.028,1.661a3.4,3.4,0,0,0,.516,1.913c.291.36.789.33,1.483-.069a3.39,3.39,0,0,0,1.483-1.641,7.436,7.436,0,0,0,.514-2.516C195.311,172.344,195.318,171.785,195.318,171.174Z" transform="translate(-176.882 -158.3)"/><path class="c" d="M193.143,166.817a1.051,1.051,0,0,1,.679.171,1.176,1.176,0,0,1,.42.555,2.705,2.705,0,0,1,.171.806c.017.334.028.7.028,1.086s-.011.767-.028,1.121a5.079,5.079,0,0,1-.171,1,4.72,4.72,0,0,1-.42,1.039,4.819,4.819,0,0,1-.679.951,3.975,3.975,0,0,1-.951.754,2.339,2.339,0,0,1-.958.347,1.082,1.082,0,0,1-.675-.169,1.113,1.113,0,0,1-.416-.557,2.647,2.647,0,0,1-.174-.8c-.021-.33-.028-.692-.028-1.084s.006-.765.028-1.121a5.107,5.107,0,0,1,.174-1,4.6,4.6,0,0,1,.416-1.039,5.142,5.142,0,0,1,.675-.954,3.819,3.819,0,0,1,.958-.771A2.138,2.138,0,0,1,193.143,166.817Zm.435,12.931a.228.228,0,0,1,.045.088.413.413,0,0,1,.015.09.7.7,0,0,1-.1.347.661.661,0,0,1-.261.259l-.9.516a.418.418,0,0,1-.319.086.622.622,0,0,1-.214-.152l-7.365-8.665a.418.418,0,0,1-.043-.1.273.273,0,0,1-.015-.09.666.666,0,0,1,.1-.347.733.733,0,0,1,.259-.253l.891-.514a.438.438,0,0,1,.324-.088.464.464,0,0,1,.219.154Zm-1.98-7.092c.1.126.3.1.594-.064a1.358,1.358,0,0,0,.6-.621,2.394,2.394,0,0,0,.193-.784c.011-.086.021-.223.026-.394s.006-.354.006-.538,0-.366-.006-.536a3,3,0,0,0-.026-.358.977.977,0,0,0-.193-.568c-.109-.126-.309-.1-.6.062a1.344,1.344,0,0,0-.594.624,2.308,2.308,0,0,0-.2.791,3.47,3.47,0,0,0-.013.381v1.074a3.161,3.161,0,0,0,.013.373A.907.907,0,0,0,191.6,172.656Zm-4.907,4.862a1.09,1.09,0,0,1,.679.176,1.119,1.119,0,0,1,.416.553,2.787,2.787,0,0,1,.171.81c.021.33.032.688.032,1.08s-.011.765-.032,1.125a5.289,5.289,0,0,1-.171,1,4.552,4.552,0,0,1-.416,1.033,4.7,4.7,0,0,1-.679.949,4.051,4.051,0,0,1-.954.761,2.284,2.284,0,0,1-.956.343,1.023,1.023,0,0,1-.675-.169,1.156,1.156,0,0,1-.42-.551,2.675,2.675,0,0,1-.174-.8c-.019-.336-.026-.7-.026-1.088s.006-.761.026-1.116a5.2,5.2,0,0,1,.174-1.007,4.9,4.9,0,0,1,.42-1.037,5.112,5.112,0,0,1,.675-.958,3.828,3.828,0,0,1,.956-.769A2.163,2.163,0,0,1,186.691,177.518Zm-1.549,5.843c.109.124.3.1.6-.064a1.351,1.351,0,0,0,.594-.621,2.255,2.255,0,0,0,.193-.788,3.042,3.042,0,0,0,.026-.39c0-.171.006-.358.006-.542s0-.362-.006-.531a2.342,2.342,0,0,0-.026-.362.914.914,0,0,0-.193-.566c-.1-.124-.309-.1-.594.064a1.356,1.356,0,0,0-.6.621,2.371,2.371,0,0,0-.2.789c-.006.081-.013.214-.013.386v1.074c0,.174.006.294.013.369A.934.934,0,0,0,185.142,183.361Z" transform="translate(-183.488 -155.71)"/></g><g transform="translate(45.901 1.13)"><path class="c" d="M196.7,158.753l4.924-11.877c5.4,2.121,9.524,7.18,11.633,14.618l-7.956,8.04C203.745,164.039,200.694,160.322,196.7,158.753Z" transform="translate(-196.702 -146.876)"/></g><g transform="translate(32.012)"><path class="c" d="M190.22,161.325V150.183c7.032-4.061,13.531-4.78,18.813-2.7l-4.924,11.877C200.207,157.822,195.416,158.325,190.22,161.325Z" transform="translate(-190.22 -146.349)"/></g><g transform="translate(54.502 15.748)"><path class="c" d="M201.88,170.81a33.309,33.309,0,0,0-1.164-9.072l7.956-8.04a45.17,45.17,0,0,1,1.566,12.286,67.875,67.875,0,0,1-1.566,14.095l-7.956,1.144A50.113,50.113,0,0,0,201.88,170.81Z" transform="translate(-200.716 -153.698)"/></g><g class="r" transform="translate(0 3.834)"><path d="M176.846,195.207a85.48,85.48,0,0,1,11.633-28.05c5.282-8.177,11.781-14.958,18.813-19.019V159.28c-5.2,3-9.987,8.027-13.889,14.069a63.118,63.118,0,0,0-8.6,20.712,50,50,0,0,0-1.164,10.416,33.223,33.223,0,0,0,1.164,9.072c1.556,5.494,4.609,9.212,8.6,10.78,3.9,1.534,8.691,1.031,13.889-1.969s9.987-8.029,13.889-14.069a63.157,63.157,0,0,0,8.6-20.714l7.956-1.144a85.59,85.59,0,0,1-11.633,28.05c-5.282,8.174-11.781,14.958-18.813,19.019s-13.531,4.78-18.813,2.7c-5.4-2.123-9.527-7.18-11.633-14.618A45.181,45.181,0,0,1,175.28,209.3,67.874,67.874,0,0,1,176.846,195.207Z" transform="translate(-175.28 -148.138)"/></g></g></g><g transform="translate(0 244.22)"><path class="n" d="M175.28,166.524,119.7,198.611v17.082c7.026-4.05,13.516-4.768,18.794-2.693,5.4,2.123,9.524,7.18,11.633,14.618A45.181,45.181,0,0,1,151.7,239.9,67.873,67.873,0,0,1,150.131,254a85.572,85.572,0,0,1-11.633,28.05c-5.278,8.168-11.768,14.945-18.794,19.008v17.082l55.576-32.087a17.423,17.423,0,0,0,7.881-13.651V171.075C183.161,166.048,179.634,164.011,175.28,166.524Z" transform="translate(-55.135 -165.448)"/><path class="n" d="M121.026,216.458a3.355,3.355,0,0,0,1.478-1.641,7.336,7.336,0,0,0,.516-2.511c.021-.519.028-1.074.028-1.686s-.006-1.166-.028-1.652a3.378,3.378,0,0,0-.516-1.922q-.437-.53-1.478.069A3.411,3.411,0,0,0,119.7,208.5v8.153C120,216.852,120.439,216.8,121.026,216.458Z" transform="translate(-55.135 -118.198)"/><path class="n" d="M121.026,220.638a3.878,3.878,0,0,1,1.845-.636,1.617,1.617,0,0,1,1.215.459,2.752,2.752,0,0,1,.688,1.341,10.253,10.253,0,0,1,.259,2.01c.021.489.032,1.059.032,1.7s-.011,1.221-.032,1.74a14.9,14.9,0,0,1-.259,2.282,8.87,8.87,0,0,1-.688,2.108,7.642,7.642,0,0,1-1.215,1.834,7.373,7.373,0,0,1-1.845,1.472,4.981,4.981,0,0,1-1.322.546v23.176c5.19-3,9.972-8.022,13.87-14.056a63.166,63.166,0,0,0,8.6-20.712,50.148,50.148,0,0,0,1.163-10.416,33.308,33.308,0,0,0-1.163-9.072c-1.558-5.494-4.609-9.212-8.6-10.78-3.9-1.534-8.68-1.031-13.87,1.961v26.026A7.758,7.758,0,0,1,121.026,220.638Zm5.734,5.093a7.011,7.011,0,0,1,.6-1.547,7.416,7.416,0,0,1,.932-1.363,8.058,8.058,0,0,1,1.215-1.138l-2.179-1.8a2.081,2.081,0,0,1-.212-.206.485.485,0,0,1-.111-.345v-1.412a.986.986,0,0,1,.114-.441.775.775,0,0,1,.285-.321l6.531-3.769a.245.245,0,0,1,.283-.009.371.371,0,0,1,.118.309V215.1a.959.959,0,0,1-.118.448.744.744,0,0,1-.283.321l-4.114,2.376,2.087,1.716a2,2,0,0,1,.216.2.506.506,0,0,1,.111.345v1.412a.921.921,0,0,1-.122.446.779.779,0,0,1-.283.326l-1.234.713a4.992,4.992,0,0,0-1.468,1.232,2.536,2.536,0,0,0-.564,1.609c0,.594.189.947.564,1.054a1.985,1.985,0,0,0,1.468-.36,6.047,6.047,0,0,0,.911-.628,4.311,4.311,0,0,0,.617-.621,3.64,3.64,0,0,0,.394-.609,4.27,4.27,0,0,0,.24-.581,3.592,3.592,0,0,1,.2-.484.669.669,0,0,1,.251-.274l1.176-.679a.269.269,0,0,1,.291-.017c.081.051.12.156.109.324a6.125,6.125,0,0,1-.313,1.47,7.32,7.32,0,0,1-.782,1.626,9.4,9.4,0,0,1-1.283,1.588,8.758,8.758,0,0,1-1.808,1.371,5,5,0,0,1-1.6.626,2.167,2.167,0,0,1-1.281-.116,1.732,1.732,0,0,1-.849-.87,3.825,3.825,0,0,1-.311-1.661A6.835,6.835,0,0,1,126.76,225.731Z" transform="translate(-55.135 -134.204)"/><path class="c" d="M124.058,218.977a2.166,2.166,0,0,0,1.281.116,5,5,0,0,0,1.6-.626,8.758,8.758,0,0,0,1.808-1.371,9.4,9.4,0,0,0,1.284-1.588,7.32,7.32,0,0,0,.782-1.626,6.125,6.125,0,0,0,.313-1.47c.011-.167-.028-.272-.109-.324a.269.269,0,0,0-.291.017l-1.176.679a.669.669,0,0,0-.251.274,3.59,3.59,0,0,0-.2.484,4.268,4.268,0,0,1-.24.581,3.64,3.64,0,0,1-.394.609,4.31,4.31,0,0,1-.617.621,6.049,6.049,0,0,1-.911.628,1.985,1.985,0,0,1-1.468.36c-.375-.107-.564-.461-.564-1.054a2.536,2.536,0,0,1,.564-1.609,4.992,4.992,0,0,1,1.468-1.232l1.234-.713a.779.779,0,0,0,.283-.326.921.921,0,0,0,.122-.446v-1.412a.506.506,0,0,0-.111-.345,2,2,0,0,0-.216-.2l-2.087-1.716,4.114-2.376a.744.744,0,0,0,.283-.321.959.959,0,0,0,.118-.448v-1.412a.371.371,0,0,0-.118-.309.245.245,0,0,0-.283.009L123.75,206.2a.775.775,0,0,0-.285.321.986.986,0,0,0-.114.441v1.412a.485.485,0,0,0,.111.345,2.075,2.075,0,0,0,.212.206l2.179,1.8a8.059,8.059,0,0,0-1.215,1.138,7.415,7.415,0,0,0-.932,1.363,7.011,7.011,0,0,0-.6,1.547,6.835,6.835,0,0,0-.21,1.673,3.825,3.825,0,0,0,.311,1.661A1.732,1.732,0,0,0,124.058,218.977Z" transform="translate(-51.484 -123.245)"/><path class="c" d="M122.871,218.963a7.642,7.642,0,0,0,1.215-1.834,8.87,8.87,0,0,0,.688-2.108,14.9,14.9,0,0,0,.259-2.282c.021-.519.032-1.1.032-1.74s-.011-1.211-.032-1.7a10.253,10.253,0,0,0-.259-2.01,2.752,2.752,0,0,0-.688-1.341,1.617,1.617,0,0,0-1.215-.459,3.878,3.878,0,0,0-1.845.636,7.758,7.758,0,0,0-1.322.981V210a3.411,3.411,0,0,1,1.322-1.388q1.041-.6,1.478-.069a3.379,3.379,0,0,1,.516,1.922c.021.486.028,1.046.028,1.652s-.006,1.168-.028,1.686a7.336,7.336,0,0,1-.516,2.511,3.355,3.355,0,0,1-1.478,1.641c-.587.339-1.022.394-1.322.2v2.833a4.982,4.982,0,0,0,1.322-.546A7.373,7.373,0,0,0,122.871,218.963Z" transform="translate(-55.135 -119.691)"/><path class="c" d="M134.778,210.3l7.956-8.04c-2.108-7.437-6.231-12.494-11.633-14.618l-4.924,11.877C130.169,201.086,133.22,204.8,134.778,210.3Z" transform="translate(-47.738 -140.088)"/><path class="c" d="M133.574,200.119l4.924-11.877c-5.278-2.074-11.768-1.356-18.794,2.693V202.08C124.894,199.089,129.676,198.585,133.574,200.119Z" transform="translate(-55.135 -140.69)"/><path class="c" d="M131.355,211.574a50.148,50.148,0,0,1-1.163,10.416l7.956-1.146a67.873,67.873,0,0,0,1.566-14.095,45.181,45.181,0,0,0-1.566-12.286l-7.956,8.04A33.308,33.308,0,0,1,131.355,211.574Z" transform="translate(-43.151 -132.292)"/><path class="c" d="M119.7,231.031v11.144c7.026-4.063,13.516-10.84,18.794-19.008l-4.924-6.192C129.676,223.009,124.894,228.029,119.7,231.031Z" transform="translate(-55.135 -106.566)"/><path class="c" d="M126.177,228.632l4.924,6.192a85.572,85.572,0,0,0,11.633-28.05l-7.956,1.146A63.166,63.166,0,0,1,126.177,228.632Z" transform="translate(-47.738 -118.223)"/><path class="o" d="M153.548,283.382c-7.032,4.06-13.531,4.78-18.813,2.706-5.4-2.126-9.527-7.182-11.633-14.62a45.17,45.17,0,0,1-1.566-12.286,67.872,67.872,0,0,1,1.566-14.095,85.526,85.526,0,0,1,11.633-28.05c5.282-8.174,11.781-14.958,18.813-19.019l.019-.011V180.925L97.953,213.034a17.423,17.423,0,0,0-7.883,13.653V328.01c0,5.027,3.529,7.065,7.883,4.551l55.614-32.109V283.371Z" transform="translate(-88.999 -147.761)"/><g transform="translate(0 31.895)"><path class="b" d="M95,335.391a5.1,5.1,0,0,1-2.586-.675c-1.834-1.058-2.846-3.2-2.846-6.03V227.362a18.354,18.354,0,0,1,8.419-14.579l56.15-32.45v2.5l-55.079,31.8a16.262,16.262,0,0,0-7.347,12.724V328.687c0,2.031.63,3.514,1.774,4.176s2.745.459,4.5-.553l56.131-32.467.019,2.524-55.079,31.8A8.222,8.222,0,0,1,95,335.391Z" transform="translate(-89.57 -180.333)"/></g><path class="o" d="M119.406,210.36c-.026.519-.032,1.078-.032,1.686s.006,1.166.032,1.652a3.388,3.388,0,0,0,.512,1.922.61.61,0,0,0,.163.124v-8.153a2.477,2.477,0,0,0-.163.257A7.339,7.339,0,0,0,119.406,210.36Z" transform="translate(-55.512 -117.288)"/><path class="o" d="M114.93,214.275a.952.952,0,0,0-.2-.561c-.107-.124-.309-.1-.594.064a1.387,1.387,0,0,0-.6.624,2.45,2.45,0,0,0-.195.786c-.006.084-.015.216-.015.388v1.074c0,.174.009.293.015.366a.968.968,0,0,0,.195.564c.111.126.306.1.6-.064a1.346,1.346,0,0,0,.594-.624,2.383,2.383,0,0,0,.2-.789c.011-.084.017-.212.026-.392s0-.351,0-.536,0-.362,0-.538S114.941,214.348,114.93,214.275Z" transform="translate(-62.414 -110.382)"/><path class="o" d="M118.42,208.176a63.166,63.166,0,0,0-8.6,20.712,50.147,50.147,0,0,0-1.163,10.416,33.3,33.3,0,0,0,1.163,9.072c1.558,5.494,4.609,9.212,8.6,10.78,3.9,1.534,8.693,1.031,13.889-1.969l.019-.013V234a3.024,3.024,0,0,1-.521.109,1.573,1.573,0,0,1-1.221-.426,2.709,2.709,0,0,1-.688-1.311,10.063,10.063,0,0,1-.261-1.986c-.009-.249-.015-.521-.015-.827v-1.866c0-.3.006-.587.015-.844a15.225,15.225,0,0,1,.261-2.288,8.92,8.92,0,0,1,.688-2.106,7.649,7.649,0,0,1,1.221-1.838,6.268,6.268,0,0,1,.521-.489V194.1l-.019.009C127.113,197.109,122.322,202.133,118.42,208.176Zm3.285,29.627a5.075,5.075,0,0,1-.167,1,4.644,4.644,0,0,1-.42,1.035,4.756,4.756,0,0,1-.677.951,4.033,4.033,0,0,1-.954.759,2.334,2.334,0,0,1-.956.345,1.055,1.055,0,0,1-.677-.169,1.166,1.166,0,0,1-.42-.551,2.817,2.817,0,0,1-.169-.81c-.021-.33-.028-.694-.028-1.086s.006-.759.028-1.116a5.213,5.213,0,0,1,.169-1,4.838,4.838,0,0,1,.42-1.035,4.988,4.988,0,0,1,.677-.958,3.8,3.8,0,0,1,.956-.771,2.1,2.1,0,0,1,.954-.332,1.1,1.1,0,0,1,.677.176,1.163,1.163,0,0,1,.42.551,2.747,2.747,0,0,1,.167.81c.021.334.032.692.032,1.082S121.727,237.447,121.705,237.8Zm5.582-.986a.7.7,0,0,1-.257.257l-.894.516a.415.415,0,0,1-.321.084.5.5,0,0,1-.216-.15l-7.367-8.665a.506.506,0,0,1-.043-.1.268.268,0,0,1-.013-.09.715.715,0,0,1,.094-.345.705.705,0,0,1,.261-.253l.9-.518a.468.468,0,0,1,.319-.09.5.5,0,0,1,.216.156l7.367,8.665a.513.513,0,0,1,.043.092.7.7,0,0,1,.015.094A.649.649,0,0,1,127.287,236.818ZM125.939,223.7a2.129,2.129,0,0,1,.958-.336,1.067,1.067,0,0,1,.675.176,1.168,1.168,0,0,1,.42.555,2.691,2.691,0,0,1,.169.8c.021.332.03.7.03,1.088s-.009.761-.03,1.121a5.148,5.148,0,0,1-.169,1,4.871,4.871,0,0,1-.42,1.039,5.142,5.142,0,0,1-.675.947,4.056,4.056,0,0,1-.958.759,2.289,2.289,0,0,1-.951.343,1.083,1.083,0,0,1-.679-.165,1.119,1.119,0,0,1-.416-.557,2.564,2.564,0,0,1-.171-.806c-.021-.332-.032-.692-.032-1.084s.011-.765.032-1.125a4.857,4.857,0,0,1,.171-1,4.508,4.508,0,0,1,.416-1.035,4.985,4.985,0,0,1,.679-.96A3.829,3.829,0,0,1,125.939,223.7Z" transform="translate(-67.76 -132.708)"/><path class="o" d="M116.557,212.585c.107.124.311.1.594-.064a1.362,1.362,0,0,0,.6-.621,2.447,2.447,0,0,0,.195-.793c.009-.077.019-.216.021-.386s.009-.358.009-.542,0-.362-.009-.531a3.629,3.629,0,0,0-.021-.366.96.96,0,0,0-.195-.561c-.109-.124-.309-.1-.6.064a1.363,1.363,0,0,0-.594.621,2.394,2.394,0,0,0-.2.793,3.317,3.317,0,0,0-.015.381v1.074a3.011,3.011,0,0,0,.015.371A.946.946,0,0,0,116.557,212.585Z" transform="translate(-58.971 -116.09)"/><path class="b" d="M120.984,217.161a3.389,3.389,0,0,1-.512-1.922c-.026-.486-.032-1.041-.032-1.652s.006-1.168.032-1.686a7.34,7.34,0,0,1,.512-2.511,2.476,2.476,0,0,1,.163-.257v-2.888a6.263,6.263,0,0,0-.521.489,7.649,7.649,0,0,0-1.221,1.838,8.919,8.919,0,0,0-.688,2.106,15.225,15.225,0,0,0-.261,2.288c-.009.257-.015.54-.015.844v1.866c0,.306.006.579.015.827a10.063,10.063,0,0,0,.261,1.986,2.709,2.709,0,0,0,.688,1.311,1.573,1.573,0,0,0,1.221.426,3.024,3.024,0,0,0,.521-.109v-2.833A.609.609,0,0,1,120.984,217.161Z" transform="translate(-56.578 -118.828)"/><path class="b" d="M115.876,210.851a4.856,4.856,0,0,0-.171,1q-.032.54-.032,1.125c0,.392.011.752.032,1.084a2.564,2.564,0,0,0,.171.806,1.119,1.119,0,0,0,.416.557,1.083,1.083,0,0,0,.679.165,2.29,2.29,0,0,0,.951-.343,4.056,4.056,0,0,0,.958-.759,5.144,5.144,0,0,0,.675-.947,4.871,4.871,0,0,0,.42-1.039,5.148,5.148,0,0,0,.169-1c.021-.36.03-.731.03-1.121s-.009-.756-.03-1.088a2.691,2.691,0,0,0-.169-.8,1.168,1.168,0,0,0-.42-.555,1.067,1.067,0,0,0-.675-.176,2.129,2.129,0,0,0-.958.336,3.828,3.828,0,0,0-.951.765,4.985,4.985,0,0,0-.679.96A4.508,4.508,0,0,0,115.876,210.851Zm1.243,1.279v-.538a3.316,3.316,0,0,1,.015-.381,2.394,2.394,0,0,1,.2-.793,1.363,1.363,0,0,1,.594-.621c.289-.165.489-.189.6-.064a.961.961,0,0,1,.195.561,3.626,3.626,0,0,1,.021.366c0,.169.009.347.009.531s0,.366-.009.542-.013.309-.021.386a2.447,2.447,0,0,1-.195.793,1.362,1.362,0,0,1-.6.621c-.283.161-.486.189-.594.064a.946.946,0,0,1-.2-.561,3.009,3.009,0,0,1-.015-.371Z" transform="translate(-59.743 -117.104)"/><path class="b" d="M116.961,213.476a1.163,1.163,0,0,0-.42-.551,1.1,1.1,0,0,0-.677-.176,2.1,2.1,0,0,0-.954.332,3.8,3.8,0,0,0-.956.771,4.988,4.988,0,0,0-.677.958,4.838,4.838,0,0,0-.42,1.035,5.214,5.214,0,0,0-.169,1c-.021.358-.028.726-.028,1.116s.006.756.028,1.086a2.818,2.818,0,0,0,.169.81,1.166,1.166,0,0,0,.42.551,1.055,1.055,0,0,0,.677.169,2.334,2.334,0,0,0,.956-.345,4.032,4.032,0,0,0,.954-.759,4.756,4.756,0,0,0,.677-.951,4.643,4.643,0,0,0,.42-1.035,5.073,5.073,0,0,0,.167-1c.021-.356.032-.731.032-1.123s-.011-.748-.032-1.082A2.746,2.746,0,0,0,116.961,213.476Zm-1.236,3.248c-.009.18-.015.309-.026.392a2.382,2.382,0,0,1-.2.789,1.346,1.346,0,0,1-.594.624c-.291.169-.486.191-.6.064a.968.968,0,0,1-.195-.564c-.006-.073-.015-.193-.015-.366V216.59c0-.171.009-.3.015-.388a2.45,2.45,0,0,1,.195-.786,1.387,1.387,0,0,1,.6-.624c.285-.163.486-.189.594-.064a.952.952,0,0,1,.2.561c.011.073.017.2.026.362s0,.351,0,.538S115.725,216.555,115.725,216.725Z" transform="translate(-63.183 -111.396)"/><path class="b" d="M122.253,218.495l-7.367-8.665a.5.5,0,0,0-.216-.156.468.468,0,0,0-.319.09l-.9.518a.705.705,0,0,0-.261.253.715.715,0,0,0-.094.345.268.268,0,0,0,.013.09.508.508,0,0,0,.043.1l7.367,8.665a.5.5,0,0,0,.216.15.415.415,0,0,0,.321-.084l.894-.516a.7.7,0,0,0,.257-.257.649.649,0,0,0,.1-.345.7.7,0,0,0-.015-.094A.516.516,0,0,0,122.253,218.495Z" transform="translate(-62.683 -114.917)"/><path class="c" d="M119.695,200.051l.019-.01V188.9l-.019.01Z" transform="translate(-55.145 -138.651)"/><path class="c" d="M113.114,245.241a50.146,50.146,0,0,1,1.164-10.416,63.166,63.166,0,0,1,8.6-20.712c3.9-6.042,8.693-11.067,13.889-14.069V188.9c-7.032,4.06-13.531,10.844-18.813,19.019a85.525,85.525,0,0,0-11.633,28.05,67.872,67.872,0,0,0-1.566,14.095,45.169,45.169,0,0,0,1.566,12.286l7.956-8.04A33.3,33.3,0,0,1,113.114,245.241Z" transform="translate(-72.218 -138.646)"/><path class="b" d="M113.442,219.429l-7.956,8.04c2.106,7.437,6.231,12.494,11.633,14.62l4.924-11.879C118.051,228.641,115,224.923,113.442,219.429Z" transform="translate(-71.382 -103.762)"/><path class="c" d="M119.695,223.547V234.69l.019-.012V223.535Z" transform="translate(-55.145 -99.069)"/><path class="b" d="M115.839,225.51l-4.924,11.879c5.282,2.074,11.781,1.354,18.813-2.706V223.541C124.532,226.541,119.741,227.044,115.839,225.51Z" transform="translate(-65.179 -99.063)"/></g><g transform="translate(198.991 297.832)"><g class="r"><path d="M185,279.177a2.455,2.455,0,0,1-1.234-.321,2.962,2.962,0,0,1-1.328-2.687V233.038a7.124,7.124,0,0,1,3.265-5.657l63.045-36.4a2.7,2.7,0,0,1,4.322,2.494V236.6a7.127,7.127,0,0,1-3.268,5.659l-63.043,36.4A3.559,3.559,0,0,1,185,279.177Zm65.5-86.6a1.483,1.483,0,0,0-.7.234l-63.043,36.4a5.049,5.049,0,0,0-2.213,3.831v43.131c0,.519.15.786.274.859s.435.071.883-.193l63.045-36.4a5.047,5.047,0,0,0,2.211-3.831V193.477c0-.518-.148-.789-.274-.861A.364.364,0,0,0,250.5,192.575Z" transform="translate(-182.438 -190.468)"/></g><g class="r" transform="translate(8.565 18.515)"><path d="M187.489,230.888a1.056,1.056,0,0,1-.527-1.969l51.4-29.67a1.054,1.054,0,0,1,1.054,1.826l-51.4,29.672A1.063,1.063,0,0,1,187.489,230.888Z" transform="translate(-186.435 -199.108)"/><g transform="translate(0 9.951)"><path d="M187.489,235.532a1.055,1.055,0,0,1-.527-1.967l51.4-29.675a1.055,1.055,0,0,1,1.054,1.828l-51.4,29.672A1.041,1.041,0,0,1,187.489,235.532Z" transform="translate(-186.435 -203.752)"/></g><g transform="translate(0 19.902)"><path d="M187.489,240.176a1.056,1.056,0,0,1-.527-1.969l51.4-29.67a1.054,1.054,0,0,1,1.054,1.826l-51.4,29.672A1.064,1.064,0,0,1,187.489,240.176Z" transform="translate(-186.435 -208.397)"/></g></g></g><g transform="translate(104.769 352.231)"><g class="r"><path d="M141.032,304.563a2.456,2.456,0,0,1-1.236-.319,2.967,2.967,0,0,1-1.331-2.689V258.426a7.127,7.127,0,0,1,3.268-5.659l63.045-36.4a2.7,2.7,0,0,1,4.32,2.494v43.129a7.123,7.123,0,0,1-3.266,5.657l-63.045,36.4A3.523,3.523,0,0,1,141.032,304.563Zm65.495-86.6a1.454,1.454,0,0,0-.694.231l-63.045,36.4a5.043,5.043,0,0,0-2.211,3.831v43.129c0,.519.148.789.276.861s.433.069.881-.191l63.045-36.4a5.056,5.056,0,0,0,2.211-3.831V218.863c0-.516-.148-.786-.274-.861A.406.406,0,0,0,206.527,217.963Z" transform="translate(-138.465 -215.856)"/></g><g class="r" transform="translate(8.565 18.513)"><path d="M143.518,256.277a1.056,1.056,0,0,1-.529-1.969l51.4-29.673a1.055,1.055,0,0,1,1.054,1.828l-51.393,29.672A1.07,1.07,0,0,1,143.518,256.277Z" transform="translate(-142.462 -224.496)"/><g transform="translate(0 9.951)"><path d="M143.518,260.919a1.055,1.055,0,0,1-.529-1.967l51.4-29.672a1.055,1.055,0,0,1,1.054,1.828l-51.393,29.67A1.047,1.047,0,0,1,143.518,260.919Z" transform="translate(-142.462 -229.14)"/></g><g transform="translate(0 19.902)"><path d="M143.518,265.565a1.055,1.055,0,0,1-.529-1.967l51.4-29.675a1.055,1.055,0,0,1,1.054,1.828l-51.393,29.67A1.049,1.049,0,0,1,143.518,265.565Z" transform="translate(-142.462 -233.784)"/></g></g></g></g></g><g transform="translate(490.56 88.685)"><path class="s" d="M610.993,78.034c0-2.8-1.011-4.74-2.627-5.614V72.4l-6.747-3.855-.015.009c-1.564-.958-3.748-.864-6.171.536L244.246,271.857c-4.757,2.747-8.612,9.424-8.612,14.913l0,411.339c0,2.766.981,4.7,2.563,5.588v.009l6.9,3.943,0,0c1.558.906,3.713.778,6.1-.6L602.387,504.289c4.757-2.745,8.612-9.422,8.612-14.913Z" transform="translate(-235.634 -67.925)"/><path class="s" d="M598.674,70.95,247.487,273.714c-4.755,2.745-8.609,9.424-8.609,14.913V699.967c0,5.49,3.855,7.716,8.612,4.971L598.68,502.176c4.757-2.745,8.612-9.422,8.612-14.913l-.006-411.341C607.286,70.429,603.431,68.205,598.674,70.95Z" transform="translate(-231.927 -65.812)"/><path class="t" d="M607.207,75.92V487.257c0,5.5-3.836,12.166-8.6,14.928L247.42,704.938c-4.238,2.426-7.74.971-8.477-3.246a9.8,9.8,0,0,0,1.517-.718L591.668,498.221c4.744-2.762,8.6-9.426,8.6-14.928V71.956a8.844,8.844,0,0,0-.148-1.729C604.149,68.729,607.207,71.028,607.207,75.92Z" transform="translate(-231.853 -65.813)"/><path class="m" d="M599.514,70.323,509.59,123.259l-90.1,52.621L329.207,228.2l-45.139,26.161-22.612,13.008-11.305,6.5a16.834,16.834,0,0,0-7.718,8.845,14.335,14.335,0,0,0-1.146,5.762L241.278,295l-.017,13.043-.032,26.086-.064,52.173-.3,104.344L240.419,595l-.7,104.344L239.017,595l-.45-104.344-.3-104.344-.064-52.173-.032-26.086L238.156,295l-.009-6.522a17.54,17.54,0,0,1,1.361-6.942,22.466,22.466,0,0,1,3.587-6,20.223,20.223,0,0,1,2.526-2.5,21.536,21.536,0,0,1,2.936-1.92l11.284-6.54L282.412,251.5l45.224-26.013,90.451-52.025,90.622-51.725Z" transform="translate(-232.767 -65.185)"/><g transform="translate(41.256 141.653)"><path class="o" d="M259.452,228.291l162.187-93.633c2.52-1.457,4.564-.276,4.564,2.636V275.111a10.087,10.087,0,0,1-4.566,7.907L259.456,376.657c-2.522,1.455-4.566.274-4.566-2.638l0-137.82A10.1,10.1,0,0,1,259.452,228.291Z" transform="translate(-254.888 -134.034)"/><g transform="translate(12.65 31.091)"><g transform="translate(2.628 175.84)"><path class="c" d="M266.256,232.974c0,.15.009.317.009.5v1.133c0,.186,0,.356-.009.514a9.8,9.8,0,0,1-.137,1.378,5.594,5.594,0,0,1-.36,1.247,4.282,4.282,0,0,1-.645,1.058,3.542,3.542,0,0,1-.969.81,1.848,1.848,0,0,1-.973.313.864.864,0,0,1-.641-.319,1.93,1.93,0,0,1-.36-.831,6.822,6.822,0,0,1-.137-1.219c-.013-.3-.017-.645-.017-1.037s0-.741.017-1.052a10.129,10.129,0,0,1,.137-1.391,5.732,5.732,0,0,1,.36-1.264,4.535,4.535,0,0,1,.641-1.078,3.47,3.47,0,0,1,.973-.823,1.827,1.827,0,0,1,.969-.309.851.851,0,0,1,.645.315,1.9,1.9,0,0,1,.36.831A6.838,6.838,0,0,1,266.256,232.974Zm-3.163,3.915a2.452,2.452,0,0,0,.272,1.193c.152.227.414.236.78.024a1.763,1.763,0,0,0,.782-.926,4.887,4.887,0,0,0,.268-1.5c.011-.311.017-.656.017-1.026s-.006-.7-.017-1a2.45,2.45,0,0,0-.268-1.191c-.156-.229-.416-.238-.782-.026a1.741,1.741,0,0,0-.78.926,4.876,4.876,0,0,0-.272,1.5c-.011.313-.017.656-.017,1.024S263.083,236.591,263.094,236.889Z" transform="translate(-262.018 -230.607)"/></g><g transform="translate(17.621 101.659)"><path class="b" d="M270.069,268.874a1.056,1.056,0,0,1-.527-1.969l122.59-70.776a1.054,1.054,0,0,1,1.054,1.826L270.6,268.732A1.063,1.063,0,0,1,270.069,268.874Z" transform="translate(-269.015 -195.987)"/></g><g transform="translate(0.558 140.916)"><path class="c" d="M261.1,219.663a.313.313,0,0,1-.043-.216.661.661,0,0,1,.081-.266l1.7-3.049c.041-.073.086-.144.129-.214a.448.448,0,0,1,.148-.15l.611-.351a.113.113,0,0,1,.148.009.264.264,0,0,1,.064.193v7.806a.628.628,0,0,1-.064.266.415.415,0,0,1-.148.184l-.636.366a.113.113,0,0,1-.148-.011.264.264,0,0,1-.064-.193v-5.97l-1.114,1.984a.318.318,0,0,1-.154.156.122.122,0,0,1-.144-.045Z" transform="translate(-261.052 -213.069)"/><path class="c" d="M267.09,216.677c0,.15.009.317.009.5v1.134c0,.186,0,.356-.009.514a10.1,10.1,0,0,1-.137,1.376,5.814,5.814,0,0,1-.36,1.249,4.281,4.281,0,0,1-.645,1.058,3.5,3.5,0,0,1-.968.808,1.816,1.816,0,0,1-.973.313.851.851,0,0,1-.641-.317,1.88,1.88,0,0,1-.36-.831,7.015,7.015,0,0,1-.139-1.219c-.011-.3-.013-.645-.013-1.037s0-.741.013-1.052a10.483,10.483,0,0,1,.139-1.391,5.508,5.508,0,0,1,.36-1.264,4.523,4.523,0,0,1,.641-1.08,3.47,3.47,0,0,1,.973-.821,1.852,1.852,0,0,1,.968-.311.86.86,0,0,1,.645.317,1.954,1.954,0,0,1,.36.831A7.039,7.039,0,0,1,267.09,216.677Zm-3.163,3.915a2.472,2.472,0,0,0,.27,1.191c.154.229.414.238.782.026a1.75,1.75,0,0,0,.78-.926,4.879,4.879,0,0,0,.27-1.5c.011-.313.017-.656.017-1.026s-.006-.7-.017-1a2.461,2.461,0,0,0-.27-1.193c-.152-.227-.416-.236-.78-.026a1.758,1.758,0,0,0-.782.928,4.948,4.948,0,0,0-.27,1.5c-.009.313-.015.656-.015,1.022S263.919,220.294,263.927,220.592Z" transform="translate(-258.993 -214.309)"/></g><g transform="translate(17.621 67.773)"><path class="b" d="M270.069,253.058a1.055,1.055,0,0,1-.527-1.967l122.59-70.779a1.055,1.055,0,0,1,1.054,1.828L270.6,252.917A1.041,1.041,0,0,1,270.069,253.058Z" transform="translate(-269.015 -180.173)"/></g><g transform="translate(0.146 106.681)"><path class="c" d="M263.4,203.505a2.784,2.784,0,0,0,.3-.765,3.267,3.267,0,0,0,.064-.594,1.114,1.114,0,0,0-.195-.729c-.131-.154-.349-.141-.654.034a1.511,1.511,0,0,0-.63.69,3.983,3.983,0,0,0-.287,1,.754.754,0,0,1-.092.289.46.46,0,0,1-.143.163l-.619.358a.128.128,0,0,1-.152,0,.229.229,0,0,1-.06-.2,5.267,5.267,0,0,1,.18-1.131,5.786,5.786,0,0,1,.42-1.089,4.807,4.807,0,0,1,.617-.93,2.975,2.975,0,0,1,.761-.651,1.438,1.438,0,0,1,.855-.244.911.911,0,0,1,.6.3,1.6,1.6,0,0,1,.347.669,3.244,3.244,0,0,1,.116.883c0,.2-.009.4-.024.587a3.371,3.371,0,0,1-.109.606,5.829,5.829,0,0,1-.253.714,9.808,9.808,0,0,1-.437.887l-1.455,2.882,2.183-1.26a.11.11,0,0,1,.148.011.252.252,0,0,1,.064.193v.857a.6.6,0,0,1-.064.266.385.385,0,0,1-.148.182l-3.666,2.117a.116.116,0,0,1-.148-.011.264.264,0,0,1-.064-.193v-.737a1.085,1.085,0,0,1,.079-.4,2.184,2.184,0,0,1,.133-.289Z" transform="translate(-260.86 -196.774)"/><path class="c" d="M267.375,200.7c.006.152.011.319.011.5v1.136c0,.184,0,.356-.011.514a10.1,10.1,0,0,1-.137,1.376,5.693,5.693,0,0,1-.36,1.249,4.211,4.211,0,0,1-.643,1.059,3.534,3.534,0,0,1-.969.808,1.846,1.846,0,0,1-.975.313.855.855,0,0,1-.641-.317,1.9,1.9,0,0,1-.36-.831,7.232,7.232,0,0,1-.137-1.219c-.011-.3-.015-.645-.015-1.037s0-.741.015-1.052a10.868,10.868,0,0,1,.137-1.393,5.671,5.671,0,0,1,.36-1.264,4.578,4.578,0,0,1,.641-1.078,3.451,3.451,0,0,1,.975-.821,1.833,1.833,0,0,1,.969-.311.852.852,0,0,1,.643.317,1.928,1.928,0,0,1,.36.831A7.041,7.041,0,0,1,267.375,200.7Zm-3.16,3.917a2.422,2.422,0,0,0,.27,1.191c.154.229.414.238.782.026a1.754,1.754,0,0,0,.778-.926,4.819,4.819,0,0,0,.272-1.506c.011-.311.017-.654.017-1.024s-.006-.7-.017-1a2.428,2.428,0,0,0-.272-1.193c-.152-.229-.414-.236-.778-.026a1.75,1.75,0,0,0-.782.928,4.807,4.807,0,0,0-.27,1.5c-.011.311-.017.654-.017,1.022S264.2,204.315,264.215,204.615Z" transform="translate(-258.256 -198.331)"/></g><g transform="translate(17.621 33.887)"><path class="b" d="M270.069,237.244a1.056,1.056,0,0,1-.527-1.969L392.131,164.5a1.054,1.054,0,0,1,1.054,1.826L270.6,237.1A1.063,1.063,0,0,1,270.069,237.244Z" transform="translate(-269.015 -164.359)"/></g><g transform="translate(0 72.741)"><path class="c" d="M264.677,183.611a.116.116,0,0,1,.15.009.264.264,0,0,1,.062.193v.859a.774.774,0,0,1-.058.281c-.041.1-.077.189-.116.266l-1.144,2.522a1.43,1.43,0,0,1,.641-.1.811.811,0,0,1,.491.216,1.239,1.239,0,0,1,.313.551,3.065,3.065,0,0,1,.109.881,4.52,4.52,0,0,1-.161,1.209,4.693,4.693,0,0,1-.448,1.086,4.6,4.6,0,0,1-.673.911,3.876,3.876,0,0,1-.844.669,2.407,2.407,0,0,1-.953.349,1.137,1.137,0,0,1-.675-.122.985.985,0,0,1-.411-.478,2,2,0,0,1-.167-.688.52.52,0,0,1,.06-.27.4.4,0,0,1,.152-.178l.621-.36a.1.1,0,0,1,.129,0,.6.6,0,0,1,.107.161.586.586,0,0,0,.126.2.374.374,0,0,0,.208.109.717.717,0,0,0,.326-.026,2.042,2.042,0,0,0,.478-.216,2.2,2.2,0,0,0,.771-.739,1.854,1.854,0,0,0,.294-1.011c0-.362-.1-.566-.294-.611a1.151,1.151,0,0,0-.771.212l-.651.377a.113.113,0,0,1-.148-.013.241.241,0,0,1-.064-.193v-.857a.729.729,0,0,1,.06-.281c.039-.1.075-.189.109-.266l1.1-2.413-2.166,1.251a.116.116,0,0,1-.15-.011.249.249,0,0,1-.062-.193v-.857a.6.6,0,0,1,.062-.266.4.4,0,0,1,.15-.182Z" transform="translate(-260.792 -181.238)"/><path class="c" d="M267.418,184.858c0,.152.009.319.009.5V186.5c0,.184,0,.356-.009.514a10.446,10.446,0,0,1-.137,1.376,5.636,5.636,0,0,1-.36,1.247,4.3,4.3,0,0,1-.645,1.061,3.536,3.536,0,0,1-.969.808,1.834,1.834,0,0,1-.973.313.854.854,0,0,1-.641-.317,1.936,1.936,0,0,1-.36-.834,6.8,6.8,0,0,1-.137-1.217c-.013-.3-.017-.645-.017-1.037s0-.741.017-1.054a10.163,10.163,0,0,1,.137-1.391,5.784,5.784,0,0,1,.36-1.264,4.4,4.4,0,0,1,.641-1.078,3.435,3.435,0,0,1,.973-.821,1.832,1.832,0,0,1,.969-.311.865.865,0,0,1,.645.315,1.936,1.936,0,0,1,.36.833A7.227,7.227,0,0,1,267.418,184.858Zm-3.163,3.917a2.425,2.425,0,0,0,.272,1.191c.152.229.414.238.78.026a1.745,1.745,0,0,0,.778-.926,4.769,4.769,0,0,0,.272-1.506c.011-.311.017-.654.017-1.024s-.006-.7-.017-1a2.4,2.4,0,0,0-.272-1.191c-.152-.229-.411-.236-.778-.026a1.749,1.749,0,0,0-.78.926,4.829,4.829,0,0,0-.272,1.506c-.011.311-.017.653-.017,1.022S264.245,188.475,264.256,188.775Z" transform="translate(-258.063 -182.491)"/></g><g transform="translate(17.621)"><path class="b" d="M270.069,221.429a1.055,1.055,0,0,1-.527-1.967l122.59-70.779a1.055,1.055,0,0,1,1.054,1.828L270.6,221.288A1.041,1.041,0,0,1,270.069,221.429Z" transform="translate(-269.015 -148.544)"/></g><g class="u" transform="translate(18.674 41.368)"><path class="c" d="M269.507,299V202.491s12.222-8.537,21.114,19.747,27.217,16.97,39.355-3.5c12.248-20.654,17.62-41.125,30.695-48.674s22.548,18.944,31.425,13.818v44.337Z" transform="translate(-269.507 -166.877)"/><path class="g" d="M269.507,299V202.491s12.222-8.537,21.114,19.747,27.217,16.97,39.355-3.5c12.248-20.654,17.62-41.125,30.695-48.674s22.548,18.944,31.425,13.818v44.337Z" transform="translate(-269.507 -166.877)"/><path class="c" d="M269.507,285.329s6.471-31.382,12.573-34.905c7.845-4.53,8.89,23.855,22.488,16s17.084-77.77,31.031-85.823,16.126,31.292,26.411,25.355,12.666-28.053,30.086-38.111v61.344L269.507,299.97Z" transform="translate(-269.507 -167.85)"/><path class="v" d="M380.067,173.12c-7.454,10.382-10.8,22.625-18.057,26.818-6.488,3.748-9.754-10.527-14.781-19.555-5.335,9.379-10.135,21.3-17.253,33.307-3.775,6.366-8.149,11.845-12.651,15.522-3.516,15.031-7.33,28.061-12.758,31.194-13.6,7.851-14.643-20.534-22.488-16-6.1,3.523-12.573,34.905-12.573,34.905v14.641L392.1,223.172V178.835C388.276,181.039,384.346,177.391,380.067,173.12Z" transform="translate(-269.507 -161.828)"/></g></g></g><g transform="translate(41.256 339.524)"><path class="o" d="M259.452,320.637,421.639,227c2.52-1.455,4.564-.276,4.564,2.636V367.456a10.087,10.087,0,0,1-4.566,7.907L259.456,469c-2.522,1.455-4.566.274-4.566-2.635l0-137.822A10.09,10.09,0,0,1,259.452,320.637Z" transform="translate(-254.888 -226.379)"/><g transform="translate(17.641 32.055)"><path class="b" d="M272.118,376.166l-9,5.195v-100.6l9-5.195Z" transform="translate(-263.121 -202.224)"/><path class="b" d="M279.529,371.887l-9,5.195v-100.6l9-5.195Z" transform="translate(-254.652 -207.114)"/><path class="b" d="M286.94,367.609l-9,5.195v-100.6l9-5.195Z" transform="translate(-246.184 -212.003)"/><path class="b" d="M294.351,363.33l-9,5.195v-100.6l9-5.195Z" transform="translate(-237.715 -216.892)"/><path class="b" d="M301.762,359.051l-9,5.195v-100.6l9-5.195Z" transform="translate(-229.246 -221.781)"/><path class="b" d="M309.173,354.773l-9,5.195v-100.6l9-5.195Z" transform="translate(-220.778 -226.671)"/><path class="c" d="M300.175,259.369l9-5.195v45.914l-9,5.195Z" transform="translate(-220.778 -226.671)"/><path class="b" d="M316.584,350.494l-9,5.195v-100.6l9-5.195Z" transform="translate(-212.309 -231.56)"/><path class="b" d="M323.995,346.215l-9,5.195v-100.6l9-5.195Z" transform="translate(-203.841 -236.45)"/><path class="b" d="M331.405,341.937l-9,5.195v-100.6l9-5.195Z" transform="translate(-195.372 -241.339)"/><g transform="translate(0 95.308)"><path class="c" d="M263.121,291.013l9-5.195v56.167l-9,5.195Z" transform="translate(-263.121 -285.818)"/><path class="n" d="M263.121,317.226l9-5.195V334.5l-9,5.195Z" transform="translate(-263.121 -255.864)"/></g><g transform="translate(15.88 98.907)"><path class="c" d="M270.532,292.693l9-5.195v20.223l-9,5.195Z" transform="translate(-270.532 -287.498)"/><path class="n" d="M270.532,302.131l9-5.195V342.58l-9,5.195Z" transform="translate(-270.532 -276.713)"/></g><g transform="translate(31.759 63.428)"><path class="c" d="M277.943,276.135l9-5.195v17.646l-9,5.195Z" transform="translate(-277.943 -270.94)"/><path class="n" d="M277.943,284.37l9-5.195v74.531l-9,5.195Z" transform="translate(-277.943 -261.53)"/></g><g transform="translate(47.638 67.804)"><path class="c" d="M285.353,278.177l9-5.195v44.455l-9,5.195Z" transform="translate(-285.353 -272.982)"/><path class="n" d="M285.353,298.924l9-5.195v34.179l-9,5.195Z" transform="translate(-285.353 -249.274)"/></g><g transform="translate(63.518 76.695)"><path class="c" d="M292.764,282.327l9-5.195v18.8l-9,5.195Z" transform="translate(-292.764 -277.132)"/><path class="n" d="M292.764,291.1l9-5.195v41.776l-9,5.195Z" transform="translate(-292.764 -267.107)"/></g><g transform="translate(79.397 73.418)"><path class="n" d="M300.175,280.8l9-5.195v54.683l-9,5.195Z" transform="translate(-300.175 -275.603)"/></g><g transform="translate(95.277 71.538)"><path class="c" d="M307.586,279.92l9-5.195v22.118l-9,5.195Z" transform="translate(-307.586 -274.725)"/><path class="n" d="M307.586,290.242l9-5.195v25.278l-9,5.195Z" transform="translate(-307.586 -262.93)"/></g><g transform="translate(111.156 26.411)"><path class="c" d="M315,258.86l9-5.195v50.013l-9,5.195Z" transform="translate(-314.997 -253.665)"/><path class="n" d="M315,282.2l9-5.195v33.342l-9,5.195Z" transform="translate(-314.997 -226.993)"/></g><g transform="translate(0 44.496)"><path class="c" d="M322.408,267.3l9-5.195v17.411l-9,5.195Z" transform="translate(-195.372 -262.105)"/><path class="c" d="M322.408,275.425l9-5.195v38.691l-9,5.195Z" transform="translate(-195.372 -252.82)"/><path class="c" d="M263.121,317.226l9-5.195V334.5l-9,5.195Z" transform="translate(-263.121 -205.053)"/><path class="g" d="M263.121,317.226l9-5.195V334.5l-9,5.195Z" transform="translate(-263.121 -205.053)"/><path class="c" d="M270.532,302.131l9-5.195V342.58l-9,5.195Z" transform="translate(-254.652 -222.303)"/><path class="g" d="M270.532,302.131l9-5.195V342.58l-9,5.195Z" transform="translate(-254.652 -222.303)"/><path class="c" d="M277.943,284.37l9-5.195v74.531l-9,5.195Z" transform="translate(-246.184 -242.598)"/><path class="g" d="M277.943,284.37l9-5.195v74.531l-9,5.195Z" transform="translate(-246.184 -242.598)"/><path class="c" d="M285.353,298.924l9-5.195v34.179l-9,5.195Z" transform="translate(-237.715 -225.967)"/><path class="g" d="M285.353,298.924l9-5.195v34.179l-9,5.195Z" transform="translate(-237.715 -225.967)"/><path class="c" d="M292.764,291.1l9-5.195v41.776l-9,5.195Z" transform="translate(-229.246 -234.908)"/><path class="g" d="M292.764,291.1l9-5.195v41.776l-9,5.195Z" transform="translate(-229.246 -234.908)"/><path class="c" d="M300.175,280.8l9-5.195v54.683l-9,5.195Z" transform="translate(-220.778 -246.681)"/><path class="g" d="M300.175,280.8l9-5.195v54.683l-9,5.195Z" transform="translate(-220.778 -246.681)"/><path class="c" d="M307.586,290.242l9-5.195v25.278l-9,5.195Z" transform="translate(-212.309 -235.888)"/><path class="g" d="M307.586,290.242l9-5.195v25.278l-9,5.195Z" transform="translate(-212.309 -235.888)"/><path class="c" d="M315,282.2l9-5.195v33.342l-9,5.195Z" transform="translate(-203.841 -245.078)"/><path class="g" d="M315,282.2l9-5.195v33.342l-9,5.195Z" transform="translate(-203.841 -245.078)"/><path class="g" d="M322.408,275.425l9-5.195v38.691l-9,5.195Z" transform="translate(-195.372 -252.82)"/></g></g></g><g transform="translate(256.994 114.685)"><path class="w" d="M360.138,196.248l128.489-74.177c2.52-1.455,4.564-.276,4.564,2.636V262.525a10.094,10.094,0,0,1-4.566,7.909L360.14,344.613c-2.522,1.457-4.566.276-4.566-2.636l0-137.82A10.094,10.094,0,0,1,360.138,196.248Z" transform="translate(-355.572 -121.448)"/><g transform="translate(27.116 51.787)"><g transform="translate(7.761 10.829)"><path class="c" d="M387.685,154.706c7.457-4.3,14.326-5.027,19.925-2.826l-19.925,48.07Z" transform="translate(-353.753 -150.671)"/><path class="c" d="M378.386,172.734c5.6-8.665,12.471-15.875,19.925-20.18V197.8Z" transform="translate(-364.379 -148.518)"/><path class="c" d="M372.628,191.685a90.65,90.65,0,0,1,12.338-29.713l19.925,25.063Z" transform="translate(-370.959 -137.756)"/><path class="c" d="M407.61,151.235c5.725,2.25,10.105,7.583,12.338,15.464L387.685,199.3Z" transform="translate(-353.753 -150.025)"/><path class="c" d="M373.518,206.273a47.818,47.818,0,0,1-1.669-13.013,72,72,0,0,1,1.669-14.941l32.263-4.65Z" transform="translate(-371.849 -124.39)"/><path class="c" d="M419.948,171.5A90.591,90.591,0,0,1,407.61,201.21l-19.925-25.061Z" transform="translate(-353.753 -126.869)"/><path class="c" d="M398.311,218.911c-7.455,4.3-14.326,5.029-19.925,2.828l19.925-48.07Z" transform="translate(-364.379 -124.39)"/><path class="c" d="M372.628,206.273l32.263-32.6-19.925,48.07C379.24,219.487,374.863,214.156,372.628,206.273Z" transform="translate(-370.959 -124.39)"/><path class="v" d="M385.856,161.972a90.632,90.632,0,0,0-12.338,29.713,72,72,0,0,0-1.669,14.941,47.818,47.818,0,0,0,1.669,13.013c2.235,7.883,6.612,13.214,12.338,15.466l19.925-48.07Z" transform="translate(-371.849 -137.756)"/><path class="c" d="M419.948,158.452a47.751,47.751,0,0,1,1.669,13.015,71.875,71.875,0,0,1-1.669,14.941l-32.263,4.65Z" transform="translate(-353.753 -141.778)"/><path class="c" d="M407.61,198.73c-5.6,8.667-12.469,15.878-19.925,20.18V173.669Z" transform="translate(-353.753 -124.39)"/><path class="g" d="M430.574,158.452l-32.263,32.606-19.925,48.07c5.6,2.2,12.471,1.476,19.925-2.828s14.326-11.513,19.925-20.18a90.584,90.584,0,0,0,12.338-29.713,71.839,71.839,0,0,0,1.669-14.939A47.751,47.751,0,0,0,430.574,158.452Z" transform="translate(-364.379 -141.778)"/></g><path class="b" d="M393.764,265.831a21.654,21.654,0,0,1-10.962-2.865c-9.261-5.348-14.575-17.658-14.575-33.778,0-30.215,18.466-65.456,41.166-78.561,10.109-5.839,19.929-6.6,27.646-2.143,9.263,5.346,14.575,17.658,14.575,33.778,0,30.212-18.466,65.456-41.166,78.561C404.681,264.153,399.005,265.831,393.764,265.831Zm32.308-118.1c-4.875,0-10.191,1.583-15.625,4.72-22.117,12.769-40.112,47.194-40.112,76.735,0,15.344,4.928,26.99,13.521,31.952,7.039,4.063,16.109,3.3,25.537-2.145C431.51,246.227,449.5,211.8,449.5,182.262c0-15.346-4.928-26.992-13.521-31.952A19.558,19.558,0,0,0,426.072,147.732Z" transform="translate(-368.227 -145.617)"/></g></g><g transform="translate(248.61 57.194)"><path class="c" d="M355.542,193.823a3.687,3.687,0,0,1-1.858-.484,4.6,4.6,0,0,1-2.025-4.228v-43.6a12.312,12.312,0,0,1,5.642-9.775l69.759-40.273a4.148,4.148,0,0,1,6.7,3.865v43.6a12.309,12.309,0,0,1-5.644,9.775l-10.337,5.968L410.8,182.387a2.414,2.414,0,0,1-2.194,1.753,2.442,2.442,0,0,1-2.4-1.47l-6-13.855-41.852,24.166A5.712,5.712,0,0,1,355.542,193.823Zm72.572-96.536-69.756,40.275a10.3,10.3,0,0,0-4.59,7.947v43.6a2.1,2.1,0,0,0,3.533,2.042l43.9-25.346,6.938,16.025a.3.3,0,0,0,.334.2.315.315,0,0,0,.3-.242l7.21-24.526,11.069-6.39a10.313,10.313,0,0,0,4.59-7.947v-43.6a2.1,2.1,0,0,0-3.535-2.04Z" transform="translate(-351.659 -94.617)"/><g transform="translate(15.996 25.402)"><path class="c" d="M360.18,136.29a1.055,1.055,0,0,1-.527-1.969l47.995-27.708a1.054,1.054,0,0,1,1.054,1.826l-47.995,27.71A1.063,1.063,0,0,1,360.18,136.29Z" transform="translate(-359.124 -106.472)"/></g><g transform="translate(15.996 34.695)"><path class="c" d="M360.18,140.627a1.055,1.055,0,0,1-.527-1.969l47.995-27.71a1.055,1.055,0,0,1,1.054,1.828l-47.995,27.71A1.063,1.063,0,0,1,360.18,140.627Z" transform="translate(-359.124 -110.809)"/></g><g transform="translate(15.996 43.987)"><path class="c" d="M360.18,144.963a1.054,1.054,0,0,1-.527-1.967l47.995-27.71a1.055,1.055,0,0,1,1.054,1.828l-47.995,27.708A1.041,1.041,0,0,1,360.18,144.963Z" transform="translate(-359.124 -115.145)"/></g></g><g transform="translate(237.208 333.791)"><g transform="translate(0.002)"><g transform="translate(0 33.17)"><g transform="translate(0 4.068)"><path class="c" d="M347.4,272.864a1.068,1.068,0,0,1-.529-.144,1.055,1.055,0,0,1-.527-.913V252.026a1.055,1.055,0,0,1,.527-.913L364,241.224a1.054,1.054,0,0,1,1.581.913l0,19.779a1.055,1.055,0,0,1-.527.913l-17.133,9.891A1.06,1.06,0,0,1,347.4,272.864Zm1.054-20.229v17.348l15.023-8.674V243.963Z" transform="translate(-346.339 -241.083)"/></g><path class="c" d="M364.28,239.347a2.079,2.079,0,0,0-2.719,1.108l-7.855,18.687-1.871-1.819a2.077,2.077,0,0,0-2.895,2.981l4.054,3.943a2.078,2.078,0,0,0,3.364-.686l9.032-21.494A2.078,2.078,0,0,0,364.28,239.347Z" transform="translate(-344.085 -239.184)"/></g><path class="c" d="M363.082,260.5l63.045-36.4c1.513-.874,2.738-.246,2.738,1.4a5.89,5.89,0,0,1-2.738,4.564l-63.045,36.4c-1.513.872-2.738.246-2.738-1.4A5.878,5.878,0,0,1,363.082,260.5Z" transform="translate(-330.335 -223.704)"/></g><g transform="translate(0 29.58)"><g transform="translate(0 33.262)"><g transform="translate(0 4.068)"><path class="c" d="M347.394,286.71a1.057,1.057,0,0,1-1.056-1.054V265.876a1.052,1.052,0,0,1,.529-.913L364,255.072a1.054,1.054,0,0,1,1.581.911v19.784a1.055,1.055,0,0,1-.527.913l-17.133,9.889A1.058,1.058,0,0,1,347.394,286.71Zm1.054-20.225v17.343l15.025-8.669V257.811Z" transform="translate(-346.338 -254.931)"/></g><path class="c" d="M364.28,253.195a2.078,2.078,0,0,0-2.719,1.108l-7.855,18.687-1.871-1.819a2.077,2.077,0,1,0-2.895,2.981l4.054,3.94a2.067,2.067,0,0,0,1.448.589,2.274,2.274,0,0,0,.414-.041,2.084,2.084,0,0,0,1.5-1.232l9.032-21.494A2.078,2.078,0,0,0,364.28,253.195Z" transform="translate(-344.083 -253.032)"/></g><path class="c" d="M363.082,274.3l63.045-36.4c1.513-.874,2.738-.246,2.738,1.4a5.887,5.887,0,0,1-2.738,4.564l-63.045,36.4c-1.513.874-2.738.246-2.738-1.4A5.881,5.881,0,0,1,363.082,274.3Z" transform="translate(-330.333 -237.509)"/></g><g transform="translate(0 59.161)"><g transform="translate(0 33.353)"><g transform="translate(0 4.069)"><path class="c" d="M347.394,300.56a1.074,1.074,0,0,1-.527-.141,1.052,1.052,0,0,1-.529-.913V279.722a1.049,1.049,0,0,1,.529-.911L364,268.92a1.054,1.054,0,0,1,1.581.913v19.782a1.054,1.054,0,0,1-.527.911l-17.133,9.893A1.08,1.08,0,0,1,347.394,300.56Zm1.054-20.229v17.348L363.473,289V271.661Z" transform="translate(-346.338 -268.779)"/></g><path class="c" d="M364.28,267.041a2.081,2.081,0,0,0-2.719,1.11l-7.855,18.687-1.871-1.819A2.077,2.077,0,1,0,348.94,288l4.054,3.94a2.067,2.067,0,0,0,1.448.589,2.1,2.1,0,0,0,.414-.043,2.076,2.076,0,0,0,1.5-1.23l9.032-21.494A2.081,2.081,0,0,0,364.28,267.041Z" transform="translate(-344.083 -266.88)"/></g><path class="c" d="M363.082,288.109l63.045-36.4c1.513-.874,2.738-.246,2.738,1.4a5.887,5.887,0,0,1-2.738,4.564l-63.045,36.4c-1.513.874-2.738.246-2.738-1.4A5.881,5.881,0,0,1,363.082,288.109Z" transform="translate(-330.333 -251.314)"/></g></g></g><g transform="translate(77.02 60.715)"><g transform="translate(213.458)"><g transform="translate(71.612 2.513)"><path class="c" d="M179.762,162.13a3.859,3.859,0,0,1-1.952-.51,4.848,4.848,0,0,1-2.132-4.461V110.467a13.1,13.1,0,0,1,6.006-10.4l74.7-43.127a4.369,4.369,0,0,1,7.06,4.075l0,46.694a13.1,13.1,0,0,1-6.006,10.4l-11.093,6.4-7.478,25.423a2.517,2.517,0,0,1-2.286,1.823,2.556,2.556,0,0,1-2.492-1.53l-6.46-14.911-44.89,25.916A6.025,6.025,0,0,1,179.762,162.13ZM257.44,58.765l-74.7,43.125a11.131,11.131,0,0,0-4.95,8.577v46.692a2.323,2.323,0,0,0,3.9,2.25l46.941-27.1,7.4,17.082a.422.422,0,0,0,.433.266.416.416,0,0,0,.392-.313l7.712-26.233,11.826-6.829a11.126,11.126,0,0,0,4.952-8.575l0-46.694a2.323,2.323,0,0,0-3.9-2.248Z" transform="translate(-175.678 -56.045)"/><g transform="translate(17.132 27.201)"><path class="c" d="M184.729,100.52a1.055,1.055,0,0,1-.529-1.967L235.6,68.88a1.054,1.054,0,0,1,1.054,1.826l-51.393,29.672A1.053,1.053,0,0,1,184.729,100.52Z" transform="translate(-183.673 -68.739)"/></g><g transform="translate(17.132 37.153)"><path class="c" d="M184.729,105.163a1.056,1.056,0,0,1-.529-1.969l51.4-29.67a1.054,1.054,0,1,1,1.054,1.826l-51.393,29.672A1.075,1.075,0,0,1,184.729,105.163Z" transform="translate(-183.673 -73.384)"/></g><g transform="translate(17.132 47.103)"><path class="c" d="M184.729,109.808a1.056,1.056,0,0,1-.529-1.969l51.4-29.67a1.054,1.054,0,1,1,1.054,1.826l-51.393,29.672A1.075,1.075,0,0,1,184.729,109.808Z" transform="translate(-183.673 -78.027)"/></g></g><path class="c" d="M146.343,160.956a3.861,3.861,0,0,1-1.954-.51,4.842,4.842,0,0,1-2.132-4.459V109.3a13.1,13.1,0,0,1,6.006-10.4l74.7-43.127c1.808-1.041,3.559-1.176,4.928-.386a4.844,4.844,0,0,1,2.132,4.461l0,29.67a1.053,1.053,0,0,1-1.054,1.054h0a1.055,1.055,0,0,1-1.054-1.054l0-29.67a2.324,2.324,0,0,0-3.9-2.25l-74.7,43.127a11.124,11.124,0,0,0-4.95,8.577v46.692a2.323,2.323,0,0,0,3.9,2.25l58.7-33.889a1.055,1.055,0,0,1,1.054,1.828l-58.7,33.887A6,6,0,0,1,146.343,160.956Z" transform="translate(-142.257 -54.872)"/><g transform="translate(17.13 27.202)"><path class="c" d="M151.307,99.348a1.056,1.056,0,0,1-.527-1.969l51.4-29.672a1.055,1.055,0,0,1,1.054,1.828l-51.4,29.672A1.063,1.063,0,0,1,151.307,99.348Z" transform="translate(-150.251 -67.567)"/></g><g transform="translate(17.13 37.153)"><path class="c" d="M151.307,103.99a1.054,1.054,0,0,1-.527-1.967l51.4-29.672a1.055,1.055,0,0,1,1.054,1.828l-51.4,29.672A1.061,1.061,0,0,1,151.307,103.99Z" transform="translate(-150.251 -72.211)"/></g><g transform="translate(17.131 50.206)"><path class="c" d="M151.307,106.982a1.054,1.054,0,0,1-.527-1.967l45.914-26.57a1.054,1.054,0,1,1,1.054,1.826l-45.914,26.568A1.044,1.044,0,0,1,151.307,106.982Z" transform="translate(-150.252 -78.303)"/></g></g><g transform="translate(0 77.676)"><path class="c" d="M71.706,145.7,66.5,135.911l4.189-12.089v-7.4l-12.818,7.4v7.4l5.511,9.546a.8.8,0,0,0,.375.332l0,0Z" transform="translate(-25.23 -62.214)"/><path class="g" d="M71.706,145.7,66.5,135.911l4.189-12.089v-7.4l-12.818,7.4v7.4l5.511,9.546a.8.8,0,0,0,.375.332l0,0Z" transform="translate(-25.23 -62.214)"/><path class="c" d="M122.271,100.5a8.492,8.492,0,0,0-3.842-6.655L115.3,92.042a8.493,8.493,0,0,0-7.686,0l-61.136,35.3a8.491,8.491,0,0,0-3.842,6.655v37.481a8.5,8.5,0,0,0,3.842,6.657l3.128,1.806a8.493,8.493,0,0,0,7.686,0l26.032-15.147,5.5,9.524a.819.819,0,0,0,1.485-.141L96.124,157.4l22.306-12.756a8.488,8.488,0,0,0,3.842-6.655Z" transform="translate(-42.637 -91.123)"/><path class="g" d="M42.637,150.633a8.5,8.5,0,0,0,3.842,6.655l3.128,1.806a8.586,8.586,0,0,0,7.03.309c-1.808.686-3.186-.336-3.186-2.526V119.394a7.868,7.868,0,0,1,1.125-3.788l-10.814-6.242a7.831,7.831,0,0,0-1.125,3.786Z" transform="translate(-42.637 -70.279)"/><path class="x" d="M121.54,99.409c-.45-1.633-1.937-2.151-3.711-1.131l-61.145,35.3a7.631,7.631,0,0,0-2.706,2.869l-10.81-6.24a7.726,7.726,0,0,1,2.706-2.867L107,92.041a8.546,8.546,0,0,1,7.692,0l3.137,1.811A8.477,8.477,0,0,1,121.54,99.409Z" transform="translate(-42.03 -91.119)"/><g transform="translate(21.301 30.35)"><path class="m" d="M57.706,116.2a11.332,11.332,0,0,0-5.128,8.882c0,3.272,2.295,4.6,5.128,2.961a11.333,11.333,0,0,0,5.128-8.884C62.833,115.887,60.538,114.561,57.706,116.2Z" transform="translate(-52.578 -93.62)"/><path class="m" d="M66.53,111.093a11.332,11.332,0,0,0-5.128,8.882c0,3.27,2.3,4.6,5.128,2.961a11.335,11.335,0,0,0,5.13-8.882C71.659,110.782,69.362,109.456,66.53,111.093Z" transform="translate(-42.495 -99.454)"/><path class="m" d="M75.354,105.988a11.338,11.338,0,0,0-5.128,8.882c0,3.272,2.3,4.6,5.128,2.961a11.335,11.335,0,0,0,5.13-8.882C80.483,105.677,78.186,104.353,75.354,105.988Z" transform="translate(-32.411 -105.287)"/></g></g></g><g transform="translate(736.269 286.65)"><g transform="translate(151.871 62.665)"><path class="y" d="M421.183,193.967l2.569,26.775,23.931-1.487-1.915-29.695Z" transform="translate(-421.183 -189.56)"/></g><g transform="translate(182.287 78.37)"><path class="y" d="M435.378,197.441c13.03-2.762,18.781,5.05,24.5,18.993s20.379,44.7,22.758,54.018c1.065,4.174-33.838,45.908-32.707,45.355.349-.171-10.317-18.016-10.317-18.016l19.424-27.339-13.681-22Z" transform="translate(-435.378 -196.89)"/></g><g transform="translate(94.807 165.642)"><path class="y" d="M532.583,459.508c-2.661-8.251-12.736-39.754-16.229-48.73-5.535-14.243-9.085-21.785-20.694-29.066,0,0,.608-71.1-.011-96.41-.778-32.409-7.935-43.257-7.935-43.257L412.8,246.26s-6.357,55.205-7.632,80.642c-1.438,28.659-1.438,37.654-.726,53.277.448,9.816,1.834,18.772,2.586,33.686.752,14.888,5.138,89.448,5.138,89.448l.124-.165a14.7,14.7,0,0,0,.276,2.318c.688,2.674,3.57,5.719,8.858,5.826,7.53.154,9.912-3.593,10.319-6.021.069-.409.135-.874.2-1.363a.68.68,0,0,0,.139-.052s5.562-31.774,9.252-56.024c2.321-15.248,3.131-26.09,3.1-33.8-.028-5.8-2.207-15.7-3.283-20.692l10.752-69.656s9.2,59.3,10.7,64.972c1.031,3.971,25.5,41.8,40.234,64.376h0l.019.032c6.394,9.792,20.889,31.181,21.8,32.385,3.191,4.217,13.891-11.071,13.891-11.071Z" transform="translate(-383.785 -232.561)"/><path class="y" d="M457.7,352.124c7.744,10.532,11.92,38.466,9.677,42.6s8.948-.069,10.491-6.274,1.836-36.831,1.836-36.831Z" transform="translate(-322.384 -107.352)"/><path class="y" d="M416.467,364.9c-.161,8.153-5.665,29.353-13.651,31.856s3.58,8.331,9.619,6.055,15.2-20.349,19.884-24.839,4.98-15.856,4.98-15.856Z" transform="translate(-388.214 -95.353)"/><path class="e" d="M414.662,242.513s-2.614,8.252-5.123,38.47-7.472,73.234-7.823,90.408c0,0,13.259-3.313,18.856-15.419,0,0,9.342,20.191,31.187,24.633s43.759-1.474,48.087-14.478c-.137-1.414.542-69.842,0-85.795s-6.64-29.289-12.666-42.713Z" transform="translate(-386.364 -237.619)"/><g transform="translate(0 266.758)"><path class="c" d="M405.855,398.354s1.8,3.167,11.569-.938,12.511-8.982,12.511-8.982-2.539-19.6-8.582-14.671S405.855,398.354,405.855,398.354Z" transform="translate(-381.635 -349.712)"/><path class="p" d="M405.855,398.354s1.8,3.167,11.569-.938,12.511-8.982,12.511-8.982-2.539-19.6-8.582-14.671S405.855,398.354,405.855,398.354Z" transform="translate(-381.635 -349.712)"/><path class="d" d="M445.119,362.384c-1.991-1.056-7.3,1.144-10.424,3.833-4.1,3.535-5.1,8.309-7.2,13.928-2.239,5.991-6.308,14.23-9.6,16.07s-9.306.141-14.268.111-8.8,2.243-9.079,5.862c-.135,2.848,12.758,9.4,20.9,9.732,6.765.279,9.07,1.427,12.814-8.472s5.162-15.47,8.134-8.74,4.105,20.761,4.105,20.761,2.342,2.779,5.985.135a131.991,131.991,0,0,1,.857-14.748c.853-6.087,4.088-15.661,3.668-22.991S447.088,363.374,445.119,362.384Z" transform="translate(-394.552 -362.114)"/></g><g transform="translate(133.426 237.81)"><path class="c" d="M469.63,390.9s3.109,1.526,9.085-7.221c2.963-4.335,3.107-5.783,3.107-5.783s-1.723-6.9-1.316-12.042c.488-6.16-10.4-8.273-11.7-4.009C466.534,369.3,469.63,390.9,469.63,390.9Z" transform="translate(-444.076 -336.032)"/><path class="p" d="M469.63,390.9s3.109,1.526,9.085-7.221c2.963-4.335,3.107-5.783,3.107-5.783s-1.723-6.9-1.316-12.042c.488-6.16-10.4-8.273-11.7-4.009C466.534,369.3,469.63,390.9,469.63,390.9Z" transform="translate(-444.076 -336.032)"/><path class="d" d="M477.323,348.617c-2.241.231-5.43,5.016-6.523,8.989-1.44,5.22.394,9.741,1.776,15.575,1.476,6.225,2.683,15.333.977,18.693s-7.652,5.3-11.791,8.037-6.057,6.765-4.275,9.925c1.472,2.441,15.828.7,22.784-3.557,5.773-3.535,8.329-3.863,5.925-14.17s-4.326-15.725,1.89-11.789,14.969,14.958,14.969,14.958,3.493,1,5.046-3.221a132.35,132.35,0,0,1-7.5-12.728c-2.681-5.53-5.323-15.286-9.754-21.14S479.51,348.343,477.323,348.617Z" transform="translate(-456.821 -348.604)"/></g></g><g transform="translate(0 43.176)"><path class="c" d="M484.422,209.407c-2.436-7.225-7.992-12.192-16.358-12.67,0,0-14.395-.469-23.866.362a77.519,77.519,0,0,0-20.112,3.951l-8.209,7.937c-3.808,4.75-10.568,26.109-10.414,62.842.03,7.039-.887,15.685,4.956,17.551,13.735,7.622,47.7,11.02,73.328-3.54,3.726-2.783,3.158-24.457,3.015-34.284C486.573,238.4,486.116,214.436,484.422,209.407Z" transform="translate(-287.315 -162.021)"/><path class="n" d="M413.326,220.271l.641-8.007-1.149-.09-.639,8c-2.209,27.564-3.563,46.253-1.856,53.491.426.163.821.336,1.266.493C409.538,267.568,411.381,244.529,413.326,220.271Z" transform="translate(-282.602 -144.23)"/><path class="y" d="M487.077,219.495s-5.577,0-22.91,9.458c-11.468,6.261-34.532,18.106-44.1,22.58-7.21-6.015-35.766-29.928-36.891-32.27-1.286-2.681.87-6.912,1.993-9.259s3.334-7.626,4.268-9.032c1.635-2.451-2.531-2.721-5.5-.791-3.047,1.978-5.248,6.591-6.63,7.144s-7.731-11.914-10.821-17.937-4.251-9.989-7.658-8.672c-2.456.947-1.847,4.217.195,9.227s2.379,5.578,2.6,6.61c.182.851-1.114,1.17-1.669,1.463-1.024.542-2.822,1.4-3.22,2.546a10.381,10.381,0,0,1-.6,1.89c-.754,1.309-2.663,1.534-3.5,2.792-.606.911-.493,2.128-.951,3.118-.3.641-.821,1.155-1.108,1.8a4.818,4.818,0,0,0,.478,3.983c2.134,4.369,5.94,6.79,9.37,9.985,2.852,2.659,6.07,4.313,9.458,6.96s39.437,46.172,47.524,47.729c2.689.519,4.513.2,7.538-.716,7.212-2.177,37.384-14.361,52.321-19.606,11.468-5.9,14.984-8.121,17.425-25.123C495.864,225.141,487.077,219.495,487.077,219.495Z" transform="translate(-350.306 -180.465)"/></g><g transform="translate(129.448)"><g transform="translate(1.341)"><path class="d" d="M411.344,177.421a5.818,5.818,0,0,1,.7-2.933,3.346,3.346,0,0,1,4.018-1.607,12.8,12.8,0,0,1-1.77-4.521,4.343,4.343,0,0,1,1.776-4.264,6.951,6.951,0,0,1,3.8-.538c8,.251,15.865-1.838,23.81-2.8s16.548-.636,23.163,3.868c3.229,2.2,6.28,5.565,7.444,9.349a11.523,11.523,0,0,1,.739,5.443c-.324,1.832-1.181,3.538-.831,5.445a67.609,67.609,0,0,1,.889,9.552c.516,13.219-30.167,21.813-29.559,30.875l-16.355-19.9c0-.827-2.31-2.888-2.833-3.587-.979-1.311-1.847-2.719-2.749-4.09-4.041-6.145-10.928-10.945-12.1-18.6A11.077,11.077,0,0,1,411.344,177.421Z" transform="translate(-411.344 -160.315)"/></g><g transform="translate(0 37.691)"><path class="j" d="M415.389,177.9s-5.3,7.875-4.609,8.706,4.06,1.721,4.06,1.721Z" transform="translate(-410.718 -177.905)"/></g><g transform="translate(3.845 10.667)"><path class="y" d="M429.533,167.367c-5.153,2.614-14.056,7.45-16.347,26.1-2.348,19.147,1.988,25.8,4.643,28.31,1.793,1.693,11.044,2.308,15.869.836,6.038-1.843,19.117-8.2,25.25-18.076,7.212-11.626,8.7-27.123.377-33.2C447.607,162.788,433.894,165.152,429.533,167.367Z" transform="translate(-412.513 -165.293)"/></g><path class="j" d="M415.226,193.1c2.168,1.2,8.32,1.688,12.9,1.02l-.139-3.439a33.871,33.871,0,0,1-6.107,1.991A21.856,21.856,0,0,1,415.226,193.1Z" transform="translate(-405.567 -125.611)"/><path class="d" d="M486.776,168.577a14.445,14.445,0,0,0-19.43-6.3c-4.362,2.228-4.72,5.155-3.514,8.725a22.956,22.956,0,0,0-4.354-2.288,21.019,21.019,0,0,0-2.216-.658,45.629,45.629,0,0,0-30.842,2.908c-.821.39-1.637.737-2.445,1.08a20.268,20.268,0,0,0-5.993,3.452,8.107,8.107,0,0,0-2.121,2.723,6.358,6.358,0,0,0-.431,3.083,8.237,8.237,0,0,0,4.815,6.657,8.014,8.014,0,0,0-1.3,6.662c.7,2.708,2.749,4.823,4.72,6.8a1.039,1.039,0,0,0,.392.285,1.051,1.051,0,0,0,.849-.255c3.236-2.164,5.235-5.9,9.809-4.4,6,1.969,5.938,11.8.737,15.312a4.7,4.7,0,0,1-5.087.163s1.592,14.858-2.141,18.9c-4.075,4.42-11.277,2.873-11.277,2.873s3.351,16.34,27.909,13.868c20.709-2.085,21.8-15.023,21.8-15.023s1.515,6.78-4.971,12.949c0,0,15.473,1.451,20.178-10.292,3.535-8.826-4.4-14.736-6.379-25.891-.808-4.555,1.091-13.54.748-20.864a8.024,8.024,0,0,0,4.245-1.052A14.444,14.444,0,0,0,486.776,168.577Z" transform="translate(-405.371 -159.875)"/><path class="d" d="M420.678,187.468a4.435,4.435,0,0,1-2.721-5.7,4.553,4.553,0,0,1,5.8-2.674Z" transform="translate(-402.756 -139.164)"/></g></g></g></svg>