<svg xmlns="http://www.w3.org/2000/svg" width="14.472" height="16" viewBox="0 0 14.472 16"><defs><style>.a{fill:#a8dadc;}.b{fill:#f1faee;}</style></defs><path class="a" d="M19.82,29.9A7.233,7.233,0,0,1,17.1,15.966.559.559,0,1,1,17.519,17,6.115,6.115,0,1,0,22.8,28.014a.559.559,0,1,1,.533.968A7.225,7.225,0,0,1,19.82,29.9Zm4.912-2.156a.57.57,0,0,1-.372-.145.559.559,0,0,1-.034-.79A6.115,6.115,0,0,0,22.13,17a.559.559,0,1,1,.417-1.035,7.229,7.229,0,0,1,2.607,11.6A.555.555,0,0,1,24.733,27.742Z" transform="translate(-12.592 -13.899)"/><path class="b" d="M31.059,18.582a.559.559,0,0,1-.559-.559V11.059a.559.559,0,1,1,1.117,0v6.965A.559.559,0,0,1,31.059,18.582Z" transform="translate(-23.83 -10.5)"/></svg>