<svg xmlns="http://www.w3.org/2000/svg" width="46" height="46" viewBox="0 0 46 46"><defs><style>.a{fill:rgba(29,53,87,0.87);}</style></defs><path class="a" d="M85.74,237.184c6.106,0,11.074-5.351,11.074-11.926s-4.969-11.926-11.074-11.926-11.074,5.351-11.074,11.926S79.635,237.184,85.74,237.184Z" transform="translate(-62.74 -213.333)"/><path class="a" d="M40.661,388.876C36.525,386.652,30.1,384,23,384s-13.525,2.652-17.661,4.876A10.281,10.281,0,0,0,0,397.987v1.559a4.8,4.8,0,0,0,4.694,4.9H41.306a4.8,4.8,0,0,0,4.694-4.9v-1.559A10.28,10.28,0,0,0,40.661,388.876Z" transform="translate(0 -358.444)"/></svg>