<svg xmlns="http://www.w3.org/2000/svg" xmlns:xlink="http://www.w3.org/1999/xlink" width="225.09" height="225.09" viewBox="0 0 225.09 225.09"><defs><style>.a,.b{fill:url(#a);}.a{clip-rule:evenodd;}.b,.d{fill-rule:evenodd;}.c{clip-path:url(#g);}.d{fill:none;}.e{fill:#fffffe;}.f{filter:url(#ci);}.g{filter:url(#cf);}.h{filter:url(#cc);}.i{filter:url(#bz);}.j{filter:url(#bw);}.k{filter:url(#bt);}.l{filter:url(#bq);}.m{filter:url(#bn);}.n{filter:url(#bk);}.o{filter:url(#bh);}.p{filter:url(#be);}.q{filter:url(#bb);}.r{filter:url(#ay);}.s{filter:url(#av);}.t{filter:url(#as);}.u{filter:url(#ap);}.v{filter:url(#am);}.w{filter:url(#aj);}.x{filter:url(#ag);}.y{filter:url(#ad);}.z{filter:url(#aa);}.aa{filter:url(#x);}.ab{filter:url(#u);}.ac{filter:url(#r);}.ad{filter:url(#o);}.ae{filter:url(#l);}.af{filter:url(#i);}.ag{filter:url(#e);}.ah{filter:url(#b);}</style><linearGradient id="a" x1="0.02" y1="0.5" x2="1.065" y2="0.5" gradientUnits="objectBoundingBox"><stop offset="0" stop-color="#1d3557" stop-opacity="0.871"/><stop offset="1" stop-color="#457b9d" stop-opacity="0.871"/></linearGradient><filter id="b" x="0" y="0" width="225.09" height="225.09" filterUnits="userSpaceOnUse"><feOffset dy="3" input="SourceAlpha"/><feGaussianBlur stdDeviation="3" result="c"/><feFlood flood-opacity="0.161"/><feComposite operator="in" in2="c"/><feComposite in="SourceGraphic"/></filter><filter id="e" x="0" y="0" width="225.09" height="225.09" filterUnits="userSpaceOnUse"><feOffset dy="3" input="SourceAlpha"/><feGaussianBlur stdDeviation="3" result="f"/><feFlood flood-opacity="0.161"/><feComposite operator="in" in2="f"/><feComposite in="SourceGraphic"/></filter><clipPath id="g"><g class="ah" transform="matrix(1, 0, 0, 1, 0, 0)"><path class="a" d="M103.545,0A103.545,103.545,0,1,1,0,103.545,103.545,103.545,0,0,1,103.545,0Z"/></g></clipPath><filter id="i" x="104.7" y="59.243" width="171.448" height="146.528" filterUnits="userSpaceOnUse"><feOffset dy="3" input="SourceAlpha"/><feGaussianBlur stdDeviation="3" result="j"/><feFlood flood-opacity="0.161"/><feComposite operator="in" in2="j"/><feComposite in="SourceGraphic"/></filter><filter id="l" x="60.081" y="60.553" width="132.96" height="132.962" filterUnits="userSpaceOnUse"><feOffset dy="3" input="SourceAlpha"/><feGaussianBlur stdDeviation="3" result="m"/><feFlood flood-opacity="0.161"/><feComposite operator="in" in2="m"/><feComposite in="SourceGraphic"/></filter><filter id="o" x="60.708" y="60.92" width="176.851" height="144.851" filterUnits="userSpaceOnUse"><feOffset dy="3" input="SourceAlpha"/><feGaussianBlur stdDeviation="3" result="p"/><feFlood flood-opacity="0.161"/><feComposite operator="in" in2="p"/><feComposite in="SourceGraphic"/></filter><filter id="r" x="66.657" y="88.002" width="134.205" height="136.647" filterUnits="userSpaceOnUse"><feOffset dy="3" input="SourceAlpha"/><feGaussianBlur stdDeviation="3" result="s"/><feFlood flood-opacity="0.161"/><feComposite operator="in" in2="s"/><feComposite in="SourceGraphic"/></filter><filter id="u" x="66.657" y="91.791" width="132.961" height="133.521" filterUnits="userSpaceOnUse"><feOffset dy="3" input="SourceAlpha"/><feGaussianBlur stdDeviation="3" result="v"/><feFlood flood-opacity="0.161"/><feComposite operator="in" in2="v"/><feComposite in="SourceGraphic"/></filter><filter id="x" x="66.76" y="92.453" width="132.858" height="140.344" filterUnits="userSpaceOnUse"><feOffset dy="3" input="SourceAlpha"/><feGaussianBlur stdDeviation="3" result="y"/><feFlood flood-opacity="0.161"/><feComposite operator="in" in2="y"/><feComposite in="SourceGraphic"/></filter><filter id="aa" x="65.356" y="99.938" width="134.262" height="136.238" filterUnits="userSpaceOnUse"><feOffset dy="3" input="SourceAlpha"/><feGaussianBlur stdDeviation="3" result="ab"/><feFlood flood-opacity="0.161"/><feComposite operator="in" in2="ab"/><feComposite in="SourceGraphic"/></filter><filter id="ad" x="61.977" y="103.318" width="136.238" height="134.262" filterUnits="userSpaceOnUse"><feOffset dy="3" input="SourceAlpha"/><feGaussianBlur stdDeviation="3" result="ae"/><feFlood flood-opacity="0.161"/><feComposite operator="in" in2="ae"/><feComposite in="SourceGraphic"/></filter><filter id="ag" x="58.763" y="103.476" width="136.072" height="134.104" filterUnits="userSpaceOnUse"><feOffset dy="3" input="SourceAlpha"/><feGaussianBlur stdDeviation="3" result="ah"/><feFlood flood-opacity="0.161"/><feComposite operator="in" in2="ah"/><feComposite in="SourceGraphic"/></filter><filter id="aj" x="63.873" y="62.072" width="132.859" height="153.067" filterUnits="userSpaceOnUse"><feOffset dy="3" input="SourceAlpha"/><feGaussianBlur stdDeviation="3" result="ak"/><feFlood flood-opacity="0.161"/><feComposite operator="in" in2="ak"/><feComposite in="SourceGraphic"/></filter><filter id="am" x="80.038" y="83.91" width="132.859" height="132.859" filterUnits="userSpaceOnUse"><feOffset dy="3" input="SourceAlpha"/><feGaussianBlur stdDeviation="3" result="an"/><feFlood flood-opacity="0.161"/><feComposite operator="in" in2="an"/><feComposite in="SourceGraphic"/></filter><filter id="ap" x="113.516" y="124.078" width="133.666" height="135.29" filterUnits="userSpaceOnUse"><feOffset dy="3" input="SourceAlpha"/><feGaussianBlur stdDeviation="3" result="aq"/><feFlood flood-opacity="0.161"/><feComposite operator="in" in2="aq"/><feComposite in="SourceGraphic"/></filter><filter id="as" x="85.521" y="138.709" width="132.859" height="132.865" filterUnits="userSpaceOnUse"><feOffset dy="3" input="SourceAlpha"/><feGaussianBlur stdDeviation="3" result="at"/><feFlood flood-opacity="0.161"/><feComposite operator="in" in2="at"/><feComposite in="SourceGraphic"/></filter><filter id="av" x="54.801" y="164.215" width="132.932" height="132.86" filterUnits="userSpaceOnUse"><feOffset dy="3" input="SourceAlpha"/><feGaussianBlur stdDeviation="3" result="aw"/><feFlood flood-opacity="0.161"/><feComposite operator="in" in2="aw"/><feComposite in="SourceGraphic"/></filter><filter id="ay" x="113.739" y="126.506" width="133.563" height="134.205" filterUnits="userSpaceOnUse"><feOffset dy="3" input="SourceAlpha"/><feGaussianBlur stdDeviation="3" result="az"/><feFlood flood-opacity="0.161"/><feComposite operator="in" in2="az"/><feComposite in="SourceGraphic"/></filter><filter id="bb" x="114.324" y="123.493" width="133.53" height="133.443" filterUnits="userSpaceOnUse"><feOffset dy="3" input="SourceAlpha"/><feGaussianBlur stdDeviation="3" result="bc"/><feFlood flood-opacity="0.161"/><feComposite operator="in" in2="bc"/><feComposite in="SourceGraphic"/></filter><filter id="be" x="150.463" y="161.995" width="133.439" height="134.55" filterUnits="userSpaceOnUse"><feOffset dy="3" input="SourceAlpha"/><feGaussianBlur stdDeviation="3" result="bf"/><feFlood flood-opacity="0.161"/><feComposite operator="in" in2="bf"/><feComposite in="SourceGraphic"/></filter><filter id="bh" x="66.238" y="83.741" width="134.624" height="137.12" filterUnits="userSpaceOnUse"><feOffset dy="3" input="SourceAlpha"/><feGaussianBlur stdDeviation="3" result="bi"/><feFlood flood-opacity="0.161"/><feComposite operator="in" in2="bi"/><feComposite in="SourceGraphic"/></filter><filter id="bk" x="119.517" y="137.561" width="133.3" height="133.507" filterUnits="userSpaceOnUse"><feOffset dy="3" input="SourceAlpha"/><feGaussianBlur stdDeviation="3" result="bl"/><feFlood flood-opacity="0.161"/><feComposite operator="in" in2="bl"/><feComposite in="SourceGraphic"/></filter><filter id="bn" x="114.443" y="127.852" width="137.933" height="142.567" filterUnits="userSpaceOnUse"><feOffset dy="3" input="SourceAlpha"/><feGaussianBlur stdDeviation="3" result="bo"/><feFlood flood-opacity="0.161"/><feComposite operator="in" in2="bo"/><feComposite in="SourceGraphic"/></filter><filter id="bq" x="145.817" y="143.686" width="137.842" height="149.597" filterUnits="userSpaceOnUse"><feOffset dy="3" input="SourceAlpha"/><feGaussianBlur stdDeviation="3" result="br"/><feFlood flood-opacity="0.161"/><feComposite operator="in" in2="br"/><feComposite in="SourceGraphic"/></filter><filter id="bt" x="150.49" y="160.424" width="133.058" height="134.429" filterUnits="userSpaceOnUse"><feOffset dy="3" input="SourceAlpha"/><feGaussianBlur stdDeviation="3" result="bu"/><feFlood flood-opacity="0.161"/><feComposite operator="in" in2="bu"/><feComposite in="SourceGraphic"/></filter><filter id="bw" x="151.772" y="164.193" width="133.155" height="132.882" filterUnits="userSpaceOnUse"><feOffset dy="3" input="SourceAlpha"/><feGaussianBlur stdDeviation="3" result="bx"/><feFlood flood-opacity="0.161"/><feComposite operator="in" in2="bx"/><feComposite in="SourceGraphic"/></filter><filter id="bz" x="130.844" y="79.69" width="132.859" height="132.881" filterUnits="userSpaceOnUse"><feOffset dy="3" input="SourceAlpha"/><feGaussianBlur stdDeviation="3" result="ca"/><feFlood flood-opacity="0.161"/><feComposite operator="in" in2="ca"/><feComposite in="SourceGraphic"/></filter><filter id="cc" x="54.875" y="164.216" width="229.755" height="132.859" filterUnits="userSpaceOnUse"><feOffset dy="3" input="SourceAlpha"/><feGaussianBlur stdDeviation="3" result="cd"/><feFlood flood-opacity="0.161"/><feComposite operator="in" in2="cd"/><feComposite in="SourceGraphic"/></filter><filter id="cf" x="127.052" y="76.871" width="132.859" height="132.859" filterUnits="userSpaceOnUse"><feOffset dy="3" input="SourceAlpha"/><feGaussianBlur stdDeviation="3" result="cg"/><feFlood flood-opacity="0.161"/><feComposite operator="in" in2="cg"/><feComposite in="SourceGraphic"/></filter><filter id="ci" x="54.801" y="46.762" width="115.267" height="135.454" filterUnits="userSpaceOnUse"><feOffset dy="3" input="SourceAlpha"/><feGaussianBlur stdDeviation="3" result="cj"/><feFlood flood-opacity="0.161"/><feComposite operator="in" in2="cj"/><feComposite in="SourceGraphic"/></filter></defs><g transform="translate(9 6)"><g class="ag" transform="matrix(1, 0, 0, 1, -9, -6)"><path class="b" d="M103.545,0A103.545,103.545,0,1,1,0,103.545,103.545,103.545,0,0,1,103.545,0Z" transform="translate(9 6)"/></g><g class="c"><g transform="translate(54.801 46.762)"><g transform="translate(0 12.482)"><g class="af" transform="matrix(1, 0, 0, 1, -63.8, -65.24)"><path class="b" d="M42.041,1.953,156.9,116.812l-38.59,13.669L3.451,15.622Z" transform="translate(110.25 63.29)"/></g><g class="ae" transform="matrix(1, 0, 0, 1, -63.8, -65.24)"><path class="b" d="M1.981,2,116.839,116.855l.1.1L2.082,2.1Z" transform="translate(67.1 64.56)"/></g><g class="ad" transform="matrix(1, 0, 0, 1, -63.8, -65.24)"><path class="b" d="M45.994,14,160.852,128.86,116.86,116.867,2,2.008Z" transform="translate(67.71 64.91)"/></g><g class="ac" transform="matrix(1, 0, 0, 1, -63.8, -65.24)"><path class="b" d="M3.544,2.9,118.4,117.76l-.006.268-.017.265-.029.261-.04.258-.051.254-.061.25-.072.246-.082.241-.092.237-.1.232-.111.227-.12.221-.129.216-.137.21-.146.2-.154.2L2.2,6.69l.154-.2.146-.2.137-.21.129-.216.12-.221.111-.227.1-.232.092-.237L3.268,4.7l.072-.246.061-.25.051-.254.04-.258.029-.261.017-.265Z" transform="translate(73.46 91.1)"/></g><g class="ab" transform="matrix(1, 0, 0, 1, -63.8, -65.24)"><path class="b" d="M2.2,3.026,117.056,117.885l.024.079.021.08.018.081.015.083.012.083.008.084.005.085,0,.086L2.3,3.688l0-.086,0-.085-.008-.084L2.274,3.35,2.26,3.267l-.018-.082-.021-.08Z" transform="translate(73.46 94.76)"/></g><g class="aa" transform="matrix(1, 0, 0, 1, -63.8, -65.24)"><path class="b" d="M2.2,3.048,117.059,117.906v7.485L2.2,10.533Z" transform="translate(73.56 95.41)"/></g><g class="z" transform="matrix(1, 0, 0, 1, -63.8, -65.24)"><path class="b" d="M3.558,3.294,118.416,118.153l-.006.245-.019.242-.031.239-.042.235-.054.231-.065.227-.075.222-.086.217-.1.212-.106.206-.116.2-.124.194-.133.187-.142.181-.15.174-.158.166L2.154,6.674l.158-.166.15-.174.142-.181.133-.187.125-.194.115-.2.106-.206.1-.212.086-.217.075-.222.065-.227.053-.231L3.5,4.021l.031-.239.019-.242Z" transform="translate(72.2 102.64)"/></g><g class="y" transform="matrix(1, 0, 0, 1, -63.8, -65.24)"><path class="b" d="M5.423,3.406,120.281,118.264l-.166.159-.174.15-.181.142-.188.133-.194.125-.2.115-.206.106-.212.1-.217.086-.222.076-.227.065-.231.053-.235.042-.239.03-.242.019-.246.006L2.043,4.809,2.289,4.8l.242-.019.239-.03.235-.042.231-.053.227-.065.222-.075L3.9,4.432l.212-.1L4.32,4.23l.2-.115.194-.125L4.9,3.857l.181-.142.174-.15Z" transform="translate(68.93 105.91)"/></g><g class="x" transform="matrix(1, 0, 0, 1, -63.8, -65.24)"><path class="b" d="M5.151,4.656,120.009,119.515l-.245-.006-.243-.019-.239-.03-.235-.042-.231-.053-.227-.065-.222-.076-.217-.086-.212-.1-.206-.106-.2-.115-.194-.125-.188-.133-.18-.142-.174-.15L1.937,3.411l.174.15.181.142.187.133.194.125.2.115.206.106.212.1.217.086.222.075.227.065.231.053.235.042.239.03.242.019Z" transform="translate(65.83 106.07)"/></g><g class="w" transform="matrix(1, 0, 0, 1, -63.8, -65.24)"><path class="b" d="M2.106,2.046,116.964,116.9v20.208L2.106,22.254Z" transform="translate(70.77 66.03)"/></g><g class="v" transform="matrix(1, 0, 0, 1, -63.8, -65.24)"><path class="b" d="M117.5,117.625ZM2.638,2.766Z" transform="translate(86.4 87.14)"/></g><g class="u" transform="matrix(1, 0, 0, 1, -63.8, -65.24)"><path class="b" d="M4.55,4.09,119.408,118.949l-.138.106-.127.117-.114.127-.1.136-.088.144-.075.15-.061.156-.048.16-.033.164-.019.167,0,.169.012.17.027.169.043.168.059.166.076.162L3.958,6.521l-.075-.162-.059-.166-.043-.168-.027-.169-.012-.17,0-.169.018-.167L3.8,5.187l.048-.16.061-.156.075-.15.089-.143.1-.136.114-.127L4.412,4.2Z" transform="translate(118.77 125.99)"/></g><g class="t" transform="matrix(1, 0, 0, 1, -63.8, -65.24)"><path class="b" d="M2.82,4.572,117.678,119.431v.006L2.819,4.579Z" transform="translate(91.7 140.14)"/></g><g class="s" transform="matrix(1, 0, 0, 1, -63.8, -65.24)"><path class="b" d="M1.88,5.415,116.738,120.273h-.073L1.806,5.413h.064Z" transform="translate(61.99 164.8)"/></g><g class="r" transform="matrix(1, 0, 0, 1, -63.8, -65.24)"><path class="b" d="M3.749,4.17,118.608,119.029l.7,1.347L4.453,5.517Z" transform="translate(118.99 128.34)"/></g><g class="q" transform="matrix(1, 0, 0, 1, -63.8, -65.24)"><path class="b" d="M4.44,4.071,119.3,118.929l-.115.1-.106.095-.1.086-.089.078-.08.069-.071.06-.061.051-.051.042L3.769,4.656l.051-.042.061-.052.071-.06.08-.069.089-.077.1-.086.106-.095Z" transform="translate(119.56 125.42)"/></g><g class="p" transform="matrix(1, 0, 0, 1, -63.8, -65.24)"><path class="b" d="M4.988,5.34,119.846,120.2l-.024.193,0,.19.015.187.033.183.05.177.066.17.082.162.1.154.111.144.125.133L5.54,7.031,5.415,6.9,5.3,6.755l-.1-.154-.083-.163-.066-.17-.05-.177L4.975,5.91,4.96,5.723l0-.19Z" transform="translate(154.5 162.65)"/></g><g class="o" transform="matrix(1, 0, 0, 1, -63.8, -65.24)"><path class="b" d="M2.184,2.76,117.042,117.619l.1.1.1.106.1.108.093.11.091.113.088.115.086.117.083.119.08.121.077.123.074.125.071.127.068.129.065.131.062.133.059.134.056.136.052.138.049.139.046.141.042.142.039.144.036.145.032.147.028.148.025.149.021.15.017.151.014.152.009.154.006.154,0,.156L3.949,7.022l0-.156-.006-.154-.01-.154-.014-.152L3.9,6.254,3.879,6.1l-.025-.149-.028-.148-.032-.147-.035-.145L3.72,5.372,3.678,5.23l-.046-.141L3.583,4.95,3.53,4.812l-.056-.136-.059-.134-.062-.133-.065-.131-.068-.129L3.15,4.022,3.076,3.9,3,3.774l-.08-.121-.083-.119-.086-.117L2.663,3.3l-.091-.113-.093-.11-.1-.108-.1-.106Z" transform="translate(73.05 86.98)"/></g><g class="n" transform="matrix(1, 0, 0, 1, -63.8, -65.24)"><path class="b" d="M3.94,4.535,118.8,119.393l.067.146.079.138.089.13.1.122.108.113L4.382,5.183l-.108-.113-.1-.122-.089-.13L4.007,4.68Z" transform="translate(124.58 139.03)"/></g><g class="m" transform="matrix(1, 0, 0, 1, -63.8, -65.24)"><path class="b" d="M3.773,4.215,118.631,119.073l5.075,9.708L8.847,13.923Z" transform="translate(119.67 129.64)"/></g><g class="l" transform="matrix(1, 0, 0, 1, -63.8, -65.24)"><path class="b" d="M4.807,4.737,119.665,119.6l.825.933.732.972.644,1,.562,1.027.484,1.043.412,1.052.345,1.054.283,1.049.227,1.037.175,1.017.13.99.089.956.053.914.022.865,0,.809-.023.746-.038.675-.047.6L9.68,21.475l.048-.6.038-.675.023-.746,0-.809-.022-.865-.053-.914-.089-.956-.129-.99-.176-1.017L9.1,12.87l-.283-1.049-.345-1.054L8.055,9.714,7.57,8.671,7.009,7.645l-.644-1L5.632,5.67Z" transform="translate(150.01 144.95)"/></g><g class="k" transform="matrix(1, 0, 0, 1, -63.8, -65.24)"><path class="b" d="M5.16,5.288,120.019,120.147l-.017.178-.017.169-.017.159-.017.149-.017.139-.016.128-.016.117-.015.106-.014.1-.013.083-.011.072-.01.06-.008.047-.006.035,0,.022,0,.009L4.961,6.859l0-.009,0-.022.006-.035.008-.047.01-.06L5,6.614l.012-.084.014-.1.015-.106.016-.117.016-.129.017-.139.017-.149.017-.159.017-.169Z" transform="translate(154.53 161.14)"/></g><g class="j" transform="matrix(1, 0, 0, 1, -63.8, -65.24)"><path class="b" d="M5.3,5.413,120.158,120.271l-.036.005-.036,0-.037,0-.037,0-.037,0-.038,0h-.075L5,5.436h.075l.037,0,.037,0,.037,0,.037,0,.036,0Z" transform="translate(155.77 164.78)"/></g><g class="i" transform="matrix(1, 0, 0, 1, -63.8, -65.24)"><path class="b" d="M4.313,2.649,119.171,117.508v-.022L4.313,2.627v.019Z" transform="translate(135.53 83.06)"/></g><g class="h" transform="matrix(1, 0, 0, 1, -63.8, -65.24)"><path class="b" d="M98.706,5.413,213.564,120.272h-96.9L1.809,5.413Z" transform="translate(62.07 164.8)"/></g><g class="g" transform="matrix(1, 0, 0, 1, -63.8, -65.24)"><path class="b" d="M119.047,117.393ZM4.188,2.534Z" transform="translate(131.86 80.34)"/></g></g><g class="f" transform="matrix(1, 0, 0, 1, -63.8, -52.76)"><path class="b" d="M77.85,34.47v.022C77.85,34.485,77.85,34.477,77.85,34.47ZM10.878,16.852V37.06a6.021,6.021,0,0,1,2.784,9.511,2.176,2.176,0,0,1,.1.662v7.485a4.783,4.783,0,0,1-9.566,0V47.233a2.175,2.175,0,0,1,.1-.662A6.025,6.025,0,0,1,7.086,37.06V15.333c.271.295.545.444.627.367l3.165,1.152ZM27.043,38.689Zm72.03,80.284a1.906,1.906,0,0,1-.3.023H1.807a1.9,1.9,0,0,0,1.8-2.22c0-.012-.111-.594-.2-1.571-.538-5.93-.327-26.387,29.121-21.716v.006a1.9,1.9,0,0,0,2.052-1.154l4.907-9.387.872-1.668.007,0a1.9,1.9,0,0,0-.343-2.223,23.373,23.373,0,0,0,10.67,2.267A30.349,30.349,0,0,0,62,78.273c-.316.286-.549.484-.671.585a1.9,1.9,0,0,0-.592,2.431l.007,0,.7,1.347,5.075,9.708a1.9,1.9,0,0,0,2.052,1.154v-.006C98.023,88.817,98.233,109.274,97.7,115.2c-.089.976-.2,1.559-.2,1.571a1.9,1.9,0,0,0,1.541,2.192l.037.006ZM50.906,1.542,90.295,14.023,51.705,27.692,7.713,15.7,50.906,1.541ZM74.058,31.651Z" transform="translate(61.99 51.22)"/></g></g></g><path class="d" d="M103.545,0A103.545,103.545,0,1,1,0,103.545,103.545,103.545,0,0,1,103.545,0Z"/><path class="e" d="M2.11,101.22a1.895,1.895,0,0,0,3.733-.652c-.014-.082-5.376-28.727,28.922-23.287l.3-1.866-.3,1.873a1.9,1.9,0,0,0,2.052-1.154l5.779-11.055.007,0a1.9,1.9,0,0,0-.592-2.431c-.918-.759-8.08-6.925-9.406-15.545l-1.874.281L32.6,47.1a1.905,1.905,0,0,0-.05-.231l-1.246-5.981-1.852.385,1.856-.387a1.9,1.9,0,0,0-1.357-1.443l-5.292-1.965V27.851l4.054-4.026,0,0a1.89,1.89,0,0,0,.56-1.345h0V8.265a10.04,10.04,0,0,1,2.076-1.826,1.89,1.89,0,0,0-2.148-3.111,12.988,12.988,0,0,0-3.3,3.159,1.888,1.888,0,0,0-.416,1.185V21.7l-3.953,3.926a1.891,1.891,0,0,0-.665,1.442v11.68a1.9,1.9,0,0,0,1.236,1.817l0-.007,5.707,2.12,1.034,4.964,0,.033h0c1.282,8.319,7.162,14.6,9.7,16.968l-4.552,8.708c-38.091-5.3-31.915,27.772-31.9,27.868ZM82.441,3.066a1.89,1.89,0,1,0-3.3,1.837l.258.485c.177.333.247.462.26.487l1.689-.844L79.65,5.88a1.888,1.888,0,0,0,.52.638c.279.281,1.774,2.219-3.349,7.622l1.37,1.3-1.376-1.3a1.889,1.889,0,0,0-.52,1.3h0v2.82a1.9,1.9,0,0,0,3.792,0V16.177C86.467,9.1,83.907,5.05,82.9,3.913l-.153-.3-.3-.544Z" transform="translate(50.757 61.427)"/><path class="e" d="M40.716,86.765a1.895,1.895,0,0,0,3.733.652c.017-.1,6.192-33.167-31.9-27.868L8,50.841c2.541-2.372,8.421-8.649,9.7-16.968h0l0-.033,1.034-4.964,5.707-2.12,0,.007a1.9,1.9,0,0,0,1.236-1.812V13.266a1.892,1.892,0,0,0-.665-1.442L21.071,7.9V4.46a1.9,1.9,0,0,0-3.792,0V8.679h0a1.89,1.89,0,0,0,.56,1.345l0,0L21.9,14.047v9.628L16.6,25.641a1.9,1.9,0,0,0-1.356,1.443l1.856.387-1.852-.385-1.246,5.981a1.9,1.9,0,0,0-.05.231l1.874.288L13.956,33.3C12.63,41.923,5.468,48.089,4.55,48.848a1.9,1.9,0,0,0-.592,2.431l.007,0L9.744,62.331A1.9,1.9,0,0,0,11.8,63.484l-.3-1.873.3,1.866c34.3-5.44,28.936,23.2,28.922,23.287Z" transform="translate(109.773 75.23)"/><path class="e" d="M47.017,1.511,92.309,15.863c.808-.093,1.517,1.5,1.237,2.38a1.894,1.894,0,0,1-1.283,1.249L47.822,35.234c.078.22-1.2.042-1.411-.056L3.2,19.448c-.2.2-1.638-1.051-1.137-2.426a1.894,1.894,0,0,1,1.321-1.191L45.78,1.508c-.06-.181,1.072-.056,1.237,0Zm38.768,16.26L46.4,5.29,9.556,17.737,47.2,31.44Z" transform="translate(57.504 41.472)"/><path class="e" d="M9.767,3.8a1.9,1.9,0,0,0-3.792,0V26.313A6.021,6.021,0,0,0,3.19,35.823a2.175,2.175,0,0,0-.1.662V43.97a4.783,4.783,0,0,0,9.566,0V36.485a2.176,2.176,0,0,0-.1-.662,6.025,6.025,0,0,0-2.784-9.511V3.8Zm0,24.1h-1.9v1.9A1.9,1.9,0,0,0,9.767,27.9Zm-1.9,0h-1.9a1.9,1.9,0,0,0,1.9,1.9,2.238,2.238,0,0,1,.184,4.469H7.874v3.792h.988v5.91a.991.991,0,0,1-1.982,0v-5.91h.988V34.269H7.687A2.238,2.238,0,0,1,7.871,29.8Z" transform="translate(54.106 55.968)"/><path class="e" d="M4.622,4.633a24.058,24.058,0,0,0,11.7,2.746A31.1,31.1,0,0,0,28.189,4.062l1.6,3.437a34.643,34.643,0,0,1-13.32,3.657A27.674,27.674,0,0,1,2.978,8.04L4.622,4.633Z" transform="translate(87.365 119.174)"/><path class="e" d="M100.54,9.08a1.9,1.9,0,1,0,0-3.792H3.642a1.9,1.9,0,0,0,0,3.792Z" transform="translate(51.232 155.136)"/></g></svg>