<svg xmlns="http://www.w3.org/2000/svg" width="21" height="24" viewBox="0 0 21 24"><defs><style>.a{fill:rgba(69,123,157,0.87);}</style></defs><circle class="a" cx="0.938" cy="0.938" r="0.938" transform="translate(14.906 15.281)"/><path class="a" d="M265.562,265.188a.938.938,0,0,0,.938-.938v-7.687a3.754,3.754,0,0,0-3.75-3.75h-1.127v-3.307a5.626,5.626,0,0,0-11.25,0v3.307H249.25a3.754,3.754,0,0,0-3.75,3.75v7.687a3.754,3.754,0,0,0,3.75,3.75h13.5a3.754,3.754,0,0,0,3.75-3.75.938.938,0,0,0-1.875,0,1.877,1.877,0,0,1-1.875,1.875h-13.5a1.877,1.877,0,0,1-1.875-1.875v-7.687a1.877,1.877,0,0,1,1.875-1.875h13.5a1.877,1.877,0,0,1,1.875,1.875v7.687A.938.938,0,0,0,265.562,265.188Zm-5.814-12.375h-7.5v-3.307a3.752,3.752,0,0,1,7.5,0Z" transform="translate(-245.5 -244)"/><circle class="a" cx="0.938" cy="0.938" r="0.938" transform="translate(7.828 15.281)"/><circle class="a" cx="0.937" cy="0.937" r="0.937" transform="translate(4.313 15.281)"/><circle class="a" cx="0.938" cy="0.938" r="0.938" transform="translate(11.344 15.281)"/></svg>